<?xml version="1.0" standalone="no"?>
<!DOCTYPE svg PUBLIC "-//W3C//DTD SVG 1.1//EN" "http://www.w3.org/Graphics/SVG/1.1/DTD/svg11.dtd" >
<svg xmlns="http://www.w3.org/2000/svg">
<metadata>Generated by IcoMoon</metadata>
<defs>
<font id="abui-icons-regular" horiz-adv-x="1024">
<font-face units-per-em="1024" ascent="960" descent="-64" />
<missing-glyph horiz-adv-x="1024" />
<glyph unicode="&#x20;" d="" horiz-adv-x="512" />
<glyph unicode="&#x2b;" d="M928 512h-352v352c0 17.6-14.4 32-32 32h-128c-17.6 0-32-14.4-32-32v-352h-352c-17.6 0-32-14.4-32-32v-128c0-17.6 14.4-32 32-32h352v-352c0-17.6 14.4-32 32-32h128c17.6 0 32 14.4 32 32v352h352c17.6 0 32 14.4 32 32v128c0 17.6-14.4 32-32 32z" />
<glyph unicode="&#x2709;" d="M488.239 320.012c13.152-11.712 34.689-11.744 47.905-0.096l408.877 361.067c13.216 11.648 22.689 21.601 21.089 22.081s-20.481 0.928-38.081 0.928h-832.026c-17.601 0-32.801-0.224-33.825-0.48s7.008-10.208 20.161-21.921l405.901-361.579zM1024.032 607.989c0 17.601-0.448 35.329-0.928 39.329s-14.208 4.64-27.425-7.040l-274.633-242.504c-13.216-11.648-13.152-30.657 0.096-42.241l270.312-236.583c13.248-11.584 25.985-16.769 28.353-11.552s4.224 34.977 4.224 52.578v448.014zM28.897 643.446c-13.152 11.744-25.025 17.697-26.401 13.28s-2.496-31.137-2.496-48.738v-448.014c0-17.601 0.512-36.065 1.12-41.025s15.616-7.648 28.961 3.776l273.001 234.055c13.344 11.424 13.536 30.369 0.384 42.081l-274.569 244.584zM672.725 312.844c-13.248 11.584-34.913 11.52-48.098-0.128l-88.739-78.306c-13.184-11.648-34.753-11.616-47.905 0.096l-88.515 78.818c-13.152 11.712-34.849 11.904-48.194 0.48l-266.376-228.327c-13.344-11.424-23.777-20.961-23.201-21.153s16.705-0.352 34.305-0.352h829.146c17.601 0 21.153 9.472 7.904 21.057l-260.328 227.815z" />
<glyph unicode="&#x270f;" d="M820.832 520.096l-403.808-403.968-44.8 44.8 403.776 404-89.856 89.728-403.872-403.776-44.896 44.832 403.968 403.872-44.864 44.832-448.704-448.704 269.248-269.28 448.64 448.832zM1006.72 608.832c23.744 23.552 22.944 63.168-1.792 87.872l-179.392 179.488c-24.672 24.672-64.32 25.344-87.84 1.76-1.952-1.92-2.816-4.416-4.448-6.464l-1.024 1.088-86.176-86.144 269.216-269.216 86.144 86.144-1.152 1.184c2.176 1.6 4.544 2.304 6.464 4.288zM103.36 249.888l-4.48-31.648c-0.032-0.032-0.032-0.032-0.032-0.064l-17.888-125.344-17.76-125.152c-2.464-17.44 9.76-29.696 27.2-27.232l282.272 40.192-269.312 269.248z" />
<glyph unicode="&#xe003;" d="M978.655 114.662l-182.694 182.694c34.113 60.322 53.858 129.86 53.858 203.974 0 229.383-186.63 415.981-416.013 415.981s-416.013-186.598-416.013-415.981 186.63-416.045 416.013-416.045c85.795 0 165.605 26.145 231.847 70.85l177.222-177.254c18.753-18.721 43.329-28.097 67.906-28.097s49.122 9.376 67.874 28.097c37.473 37.505 37.473 98.243 0 135.78zM145.797 501.33c0 158.789 129.188 287.977 288.009 287.977s288.009-129.188 288.009-287.977c0-158.821-129.188-288.041-288.009-288.041s-288.009 129.22-288.009 288.041z" />
<glyph unicode="&#xe005;" d="M760.8 796c-14.592 1.44-28.192 2.080-41.024 2.080-102.464 0-151.552-44.224-207.776-111.328-56.256 67.136-105.44 111.328-207.84 111.328-12.768 0-26.432-0.672-40.992-2.080-88.672-8.672-191.2-89.824-203.648-245.408v-51.744c11.488-147.072 121.728-328.224 441.184-554.72h0.032c2.88-2.848 6.848-4.64 11.264-4.64s8.384 1.792 11.264 4.64h0.032c319.424 226.496 429.696 407.648 441.184 554.72v51.744c-12.512 155.584-115.040 236.736-203.68 245.408z" />
<glyph unicode="&#xe006;" d="M491.008 896.096c11.488 33.216 30.432 33.216 42.048 0l88.928-256c11.616-33.28 49.824-61.024 85.056-61.856l270.944-5.536c35.2-0.704 41.056-18.656 12.992-40l-216-163.68c-28.064-21.28-42.624-66.24-32.512-99.936l78.56-259.424c10.176-33.632-5.152-44.768-33.984-24.672l-222.56 154.816c-28.864 20.16-76.128 20.16-104.992 0l-222.432-154.816c-28.96-20.128-44.192-8.96-33.984 24.672l78.368 259.424c10.176 33.696-4.384 78.656-32.448 99.936l-216 163.68c-28.064 21.344-22.272 39.296 12.992 40l271.008 5.536c35.2 0.8 73.504 28.576 84.992 61.856l89.024 256z" />
<glyph unicode="&#xe008;" d="M920.189 156.359c-95.299 22.593-297.609 36.481-297.609 161.349 0 5.632 0 11.264 0 16.801h0.096c0.096 20.481 8.768 38.881 22.657 51.842l-0.64 0.96c62.082 55.554 102.883 154.181 102.883 287.433 0 196.070-105.443 285.257-235.527 285.257s-235.527-89.187-235.527-285.257c0-133.252 40.769-231.879 102.851-287.433l-0.64-0.96c13.888-12.96 22.561-31.361 22.657-51.842h0.032c0-5.568 0-11.2 0-16.801 0-124.868-202.31-138.756-297.609-161.349-52.098-12.384-98.499-52.706-98.499-106.243v-19.617c0-0.256-0.032-0.544-0.032-0.8s0.032-0.576 0.032-0.832v-28.929c161.957-41.761 331.722-63.938 506.704-63.938s344.747 22.177 506.736 63.874v50.21h-0.064c0 53.538-46.401 93.891-98.499 106.275z" />
<glyph unicode="&#xe011;" d="M256 768c0-35.2-28.8-64-64-64h-128c-35.2 0-64 28.8-64 64v128c0 35.168 28.8 64 64 64h128c35.2 0 64-28.832 64-64v-128zM256 384c0-35.2-28.8-64-64-64h-128c-35.2 0-64 28.8-64 64v128c0 35.168 28.8 64 64 64h128c35.2 0 64-28.832 64-64v-128zM256 0c0-35.2-28.8-64-64-64h-128c-35.2 0-64 28.8-64 64v128c0 35.168 28.8 64 64 64h128c35.2 0 64-28.832 64-64v-128zM640 768c0-35.2-28.8-64-64-64h-128c-35.2 0-64 28.8-64 64v128c0 35.168 28.8 64 64 64h128c35.2 0 64-28.832 64-64v-128zM640 384c0-35.2-28.8-64-64-64h-128c-35.2 0-64 28.8-64 64v128c0 35.168 28.8 64 64 64h128c35.2 0 64-28.832 64-64v-128zM640 0c0-35.2-28.8-64-64-64h-128c-35.2 0-64 28.8-64 64v128c0 35.168 28.8 64 64 64h128c35.2 0 64-28.832 64-64v-128zM1024 768c0-35.2-28.8-64-64-64h-128c-35.2 0-64 28.8-64 64v128c0 35.168 28.8 64 64 64h128c35.2 0 64-28.832 64-64v-128zM1024 384c0-35.2-28.8-64-64-64h-128c-35.2 0-64 28.8-64 64v128c0 35.168 28.8 64 64 64h128c35.2 0 64-28.832 64-64v-128zM1024 0c0-35.2-28.8-64-64-64h-128c-35.2 0-64 28.8-64 64v128c0 35.168 28.8 64 64 64h128c35.2 0 64-28.832 64-64v-128z" />
<glyph unicode="&#xe013;" d="M1013.984 730.976c5.312-6.688 8-14.336 8-23.008s-2.688-16.352-8-23.008l-612-611.968c-14.688-14.688-30.016-14.688-46.016 0l-89.984 92c-9.312 9.312-24.672 24.672-46.016 46.016l-209.984 220c-5.312 6.656-8 14.656-8 24 0 8 2.688 15.328 8 22.016l92 81.984c6.688 6.656 14.688 9.984 24 9.984 8 0 15.328-3.328 22.016-9.984l208-212c16-14.688 31.328-14.688 46.016 0l475.968 473.984c6.688 6.656 14.304 9.984 23.008 9.984s16.32-3.328 23.008-9.984l89.984-90.016z" />
<glyph unicode="&#xe014;" d="M751.008 820.576l-271.008-271.008-270.976 271.008c-6.688 6.656-14.368 10.016-23.040 10.016s-16.32-3.328-22.976-9.984l-89.984-90.016c-16-14.688-16-30.016 0-46.016l270.976-271.008-271.008-271.008c-6.688-6.688-9.984-14.336-9.984-23.008s3.328-16.352 10.016-23.008l89.984-89.984c6.656-6.688 14.304-9.984 22.976-9.984s16.32 3.328 23.008 9.984l271.008 271.008 271.008-271.008c6.656-6.688 14.304-9.984 22.976-9.984s16.352 3.328 23.040 9.984l89.984 89.984c6.656 6.656 9.984 14.304 9.984 23.008 0.032 8.672-3.328 16.32-9.984 22.976l-272.608 271.008 272.608 271.008c6.688 6.656 10.016 14.336 9.984 23.008 0.032 8.64-3.328 16.32-9.984 22.976l-89.984 89.984c-16.032 16.064-31.36 16.064-46.016 0.064z" />
<glyph unicode="&#xe015;" d="M978.624 125.376l-182.688 182.688c34.112 60.32 53.824 129.856 53.824 203.968 0 229.376-186.624 415.968-416 415.968s-416-186.592-416-415.968 186.624-416.032 416-416.032c85.824 0 165.632 26.144 231.872 70.848l177.216-177.248c18.752-18.72 43.328-28.096 67.904-28.096s49.12 9.376 67.872 28.096c37.472 37.504 37.472 98.24 0 135.776zM145.76 512.032c0 158.784 129.216 287.968 288 287.968 158.88 0 288-129.184 288-287.968 0-158.816-129.12-288.032-288-288.032-158.784 0-288 129.216-288 288.032zM608 576.032h-96v96c0 17.6-14.4 32-32 32h-64c-17.6 0-32-14.4-32-32v-96h-96c-17.6 0-32-14.4-32-32v-64c0-17.6 14.4-32 32-32h96v-96c0-17.6 14.4-32 32-32h64c17.6 0 32 14.4 32 32v96h96c17.6 0 32 14.4 32 32v64c0 17.6-14.4 32-32 32z" />
<glyph unicode="&#xe016;" d="M978.624 125.376l-182.688 182.688c34.112 60.32 53.824 129.856 53.824 203.968 0 229.376-186.624 415.968-416 415.968s-416-186.592-416-415.968 186.624-416.032 416-416.032c85.824 0 165.632 26.144 231.872 70.848l177.216-177.248c18.752-18.72 43.328-28.096 67.904-28.096s49.12 9.376 67.872 28.096c37.472 37.504 37.472 98.24 0 135.776zM145.76 512.032c0 158.784 129.216 287.968 288 287.968 158.88 0 288-129.184 288-287.968 0-158.816-129.12-288.032-288-288.032-158.784 0-288 129.216-288 288.032zM288 448.032c-17.6 0-32 14.4-32 32v64c0 17.6 14.4 32 32 32h320c17.6 0 32-14.4 32-32v-64c0-17.6-14.4-32-32-32h-320z" />
<glyph unicode="&#xe019;" d="M954.558 557.363h-133.732c-7.968 25.697-19.137 49.89-32.737 72.386l88.675 88.931c20.929 20.673 20.929 54.498 0 75.362l-37.665 37.569c-20.833 20.737-54.626 20.673-75.362 0l-90.243-90.115c-24.385 13.952-50.786 24.673-78.914 31.873v117.252c0 29.377-23.745 53.314-53.282 53.314h-53.314c-29.377 0-53.25-23.937-53.25-53.314v-117.252c-30.657-7.68-59.362-19.937-85.795-35.937l-75.458 75.426c-20.769 20.673-54.69 20.801-75.458 0l-37.825-37.665c-20.801-20.769-20.545-54.69 0.16-75.522l76.866-76.866c-16.257-28.385-28.449-59.33-35.393-92.067h-100.419c-29.505 0-53.41-23.873-53.41-53.378v-53.378c0-29.313 23.905-53.186 53.41-53.186h107.235c9.696-32.129 24.385-61.826 43.137-88.739l-72.514-72.514c-20.865-20.929-20.865-54.754-0.16-75.554l37.665-37.633c20.929-20.673 54.786-20.673 75.522 0.128l80.995 80.931c27.329-13.568 56.898-23.361 88.067-28.449v-111.555c0-29.441 23.841-53.25 53.314-53.378h53.314c29.377 0.128 53.314 23.937 53.314 53.378v125.316c26.881 9.504 52.354 22.177 75.394 38.369l85.859-85.891c20.833-20.801 54.53-20.801 75.458 0l37.665 37.697c20.929 20.737 20.929 54.562-0.16 75.426l-94.051 94.307c11.552 23.361 20.545 48.322 26.081 74.69h127.012c29.569 0 53.378 23.745 53.474 53.442v53.25c-0.096 29.409-23.905 53.346-53.474 53.346zM514.736 330.796c-73.602 0-133.284 59.426-133.284 133.252 0 73.698 59.682 133.252 133.284 133.252 73.698 0 133.38-59.554 133.38-133.252 0-73.826-59.682-133.252-133.38-133.252z" />
<glyph unicode="&#xe021;" d="M992.64 484.032l-160.672 118.016v197.92c0 17.6-14.4 32-32 32h-64c-17.6 0-32-14.4-32-32v-100.032l-155.68 122.88c-13.824 10.912-36.544 11.072-50.496 0.352l-440.832-338.56c-13.952-10.72-15.712-30.144-3.872-43.2l49.44-54.496c11.84-13.024 33.856-16.288 48.96-7.264l40.448 24.224v-435.904c0-17.6 14.4-32 32-32h640c17.6 0 32 14.4 32 32v435.904l29.76-23.36c0.192 0.256 0.416 0.448 0.608 0.672 13.44-7.84 30.4-4.928 39.584 8.32l34.272 49.312c10.016 14.464 6.656 34.816-7.52 45.216zM415.936 319.968h192c17.6 0 32-14.4 32-32v-256c0-17.536-14.304-31.872-31.84-31.968h-192.32c-17.504 0.096-31.84 14.432-31.84 31.968v256c0 17.6 14.4 32 32 32z" />
<glyph unicode="&#xe022;" d="M625.12 937.376c-12.448 12.448-37.024 22.624-54.624 22.624h-474.496c-17.6 0-32-14.4-32-32v-960c0-17.6 14.4-32 32-32h768c17.6 0 32 14.4 32 32v666.496c0 17.6-10.176 42.176-22.624 54.624l-248.256 248.256zM768 96c0-17.6-14.4-32-32-32h-512c-17.6 0-32 14.4-32 32v704c0 17.6 14.4 32 32 32h320c17.6 0 32-14.4 32-32v-128c0-17.6 14.4-32 32-32h128c17.6 0 32-14.4 32-32v-512z" />
<glyph unicode="&#xe023;" d="M1024 421.568c0-134.048-47.392-248.448-142.24-343.296s-209.312-142.272-343.328-142.272c-134.048 0-248.48 47.392-343.328 142.24s-142.24 209.248-142.24 343.296c0 134.016 47.392 248.48 142.24 343.328s209.248 142.272 343.328 142.272c134.016 0 248.48-47.424 343.328-142.272 94.848-94.816 142.24-209.28 142.24-343.296zM697.76 294.528l-106.208 127.040c-13.92 15.2-21.504 32.864-22.752 53.12l-13.28 220.032c0 8.832-3.168 16.128-9.472 21.824-6.336 5.696-13.952 8.544-22.784 8.544h-18.976c-8.832 0-16.448-2.848-22.752-8.544-6.336-5.696-9.504-12.992-9.504-21.824l-17.056-269.344c-1.28-20.256 5.696-36.672 20.864-49.312l163.136-140.352c15.168-13.952 29.696-13.28 43.616 1.92l13.28 13.28c15.168 15.136 15.776 29.664 1.888 43.616z" />
<glyph unicode="&#xe025;" d="M28.64 689.696l454.752-227.36c15.744-7.872 41.504-7.872 57.248 0l454.752 227.36c15.744 7.872 15.744 20.736 0 28.64l-454.752 227.36c-15.744 7.872-41.504 7.872-57.248 0l-454.752-227.392c-15.776-7.872-15.776-20.736 0-28.608zM994.048 459.328l-150.048 56.672-303.264-148c-15.808-7.712-41.6-7.584-57.344 0.288l-287.392 143.712-165.6-54.048c-16.704-5.472-17.536-16.384-1.792-24.256l454.752-227.36c15.744-7.872 41.504-7.872 57.248 0l454.752 227.36c15.776 7.872 15.168 19.392-1.312 25.632zM994.048 203.328l-150.048 56.672-303.264-148c-15.808-7.712-41.6-7.584-57.344 0.288l-287.392 143.712-165.6-54.048c-16.704-5.472-17.536-16.384-1.792-24.256l454.752-227.36c15.744-7.872 41.504-7.872 57.248 0l454.752 227.36c15.776 7.872 15.168 19.392-1.312 25.632z" />
<glyph unicode="&#xe026;" d="M864 256c-17.6 0-32-14.4-32-32v-64c0-17.6-14.4-32-32-32h-576c-17.6 0-32 14.4-32 32v64c0 17.6-14.4 32-32 32h-64c-17.6 0-32-14.4-32-32v-192c0-17.6 14.4-32 32-32h64c17.6 0 46.4 0 64 0h576c17.6 0 46.4 0 64 0h64c17.6 0 32 14.4 32 32v192c0 17.6-14.4 32-32 32h-64zM800 576h-96v224c0 17.6-14.4 32-32 32h-320c-17.6 0-32-14.4-32-32v-224h-96c-17.6 0-22.016-10.368-9.824-23.040l275.616-286.112c12.192-12.672 32.192-12.672 44.384 0l275.616 286.112c12.224 12.672 7.808 23.040-9.792 23.040z" />
<glyph unicode="&#xe027;" d="M864 256c-17.6 0-32-14.4-32-32v-64c0-17.6-14.4-32-32-32h-576c-17.6 0-32 14.4-32 32v64c0 17.6-14.4 32-32 32h-64c-17.6 0-32-14.4-32-32v-192c0-17.6 14.4-32 32-32h64c17.6 0 46.4 0 64 0h576c17.6 0 46.4 0 64 0h64c17.6 0 32 14.4 32 32v192c0 17.6-14.4 32-32 32h-64zM809.824 586.848l-275.648 286.112c-12.192 12.672-32.16 12.672-44.384 0l-275.584-286.112c-12.224-12.672-7.808-23.040 9.792-23.040h96v-224c0-17.632 14.4-32 32-32h320c17.6 0 32 14.368 32 32v224h96c17.6 0 22.016 10.368 9.824 23.040z" />
<glyph unicode="&#xe031;" d="M605.312 837.44c-198.496 0-364.8-139.040-407.616-324.672l-128.736 1.536c-17.6 0.224-24.416-11.84-15.168-26.816l183.936-296.96c9.248-14.976 24.704-15.168 34.304-0.416l190.816 292.544c9.6 14.752 3.072 26.976-14.528 27.2l-117.184 1.312c38.88 114.848 146.368 198.304 274.176 198.304 160.256 0 290.688-130.464 290.688-290.72 0-160.32-130.432-290.656-290.688-290.656-53.888 0-103.904 15.392-147.232 41.088l-0.384-0.704c-2.336 1.344-4.896 2.304-7.808 2.304-5.696 0-10.4-3.136-13.248-7.552l-0.32 0.128-52.192-79.936 0.256-0.128 0.064-0.096c-1.792-2.56-3.072-5.536-3.072-8.896 0-5.6 3.040-10.272 7.36-13.12l-0.032-0.064c0.224-0.16 0.48-0.256 0.704-0.416 0.736-0.448 1.408-0.928 2.208-1.248 62.592-37.472 135.456-59.328 213.632-59.328 230.944-0.064 418.752 187.712 418.752 418.592 0 230.848-187.808 418.72-418.688 418.72z" />
<glyph unicode="&#xe033;" d="M800.025 511.986h-32.001v89.379c0 156.581-129.188 283.945-288.009 283.945s-288.009-127.364-288.009-283.945v-89.379h-32.001c-17.601 0-32.001-14.4-32.001-32.001v-512.016c0-17.601 14.4-32.001 32.001-32.001h640.020c17.601 0 32.001 14.4 32.001 32.001v512.016c0 17.601-14.4 32.001-32.001 32.001zM524.656 64.004h-106.019l27.009 146.821c-15.84 9.152-27.009 25.601-27.009 45.153 0 29.345 23.745 52.994 52.994 52.994 29.313 0 53.026-23.649 53.026-52.994 0-19.553-11.168-36.001-27.009-45.153l27.009-146.821zM320.010 511.986v89.379c0 84.547 73.25 155.941 160.005 155.941 86.691 0 160.005-71.394 160.005-155.941v-89.379h-320.010z" />
<glyph unicode="&#xe038;" d="M577.984 877.408l-306.368-218.816c-14.304-10.208-40.416-18.592-58.016-18.592h-181.6c-17.696 0-32-14.336-32-32v-320c0-17.696 14.304-32 32-32h181.6c17.6 0 43.712-8.384 58.016-18.592l306.336-218.816c14.304-10.208 26.016-4.192 26.016 13.408v832c0.032 17.6-11.68 23.616-25.984 13.408zM976 654.976c-32 64-76 118.016-132 161.984l-48-72c44-36 78.656-79.68 104-131.008 25.312-51.328 38.016-106.688 38.016-166.016s-12.672-115.008-38.016-167.008c-25.344-52-60-96-104-132l48-70.016c56 44 100 97.984 132 161.984s48 133.088 48 207.104-16 142.976-48 206.976zM748 674.976l-48-72c45.312-42.688 68-94.336 68-154.976 0-60.672-22.688-112.352-68-155.008l48-72c70.656 60 105.984 135.648 105.984 227.008 0.032 91.296-35.328 166.976-105.984 226.976z" />
<glyph unicode="&#xe043;" d="M896 960h-800c-17.6 0-32-14.4-32-32v-192c0-17.6-14.4-32-32-32s-32-14.4-32-32v-128c0-17.6 14.4-32 32-32s32-14.4 32-32v-64c0-17.6-14.4-32-32-32s-32-14.4-32-32v-128c0-17.6 14.4-32 32-32s32-14.4 32-32v-192c0-17.6 14.4-32 32-32h800v1024zM96 256c-17.6 0-32 14.4-32 32s14.4 32 32 32 32-14.4 32-32-14.4-32-32-32zM96 576c-17.6 0-32 14.4-32 32s14.4 32 32 32 32-14.4 32-32-14.4-32-32-32zM685.344 301.056c0-5.248-14.112-12.256-31.424-15.552 0 0-94.272-18.144-160.576-18.144s-160.576 18.144-160.576 18.144c-17.312 3.328-31.424 8.512-31.424 11.52s0 5.6 0 5.696c0 0 0 0 0 0.096s0 0.096 0 0.096c0 0.128 0 1.952 0 3.968s6.368 16.64 14.176 32.416c0 0 3.392 6.848 23.168 11.52 36.096 8.608 112.736 13.856 112.736 61.152 0 2.112 0 4.256 0 6.368-0.032 7.744-0.032 7.744-0.032 7.744-4.704 6.528-8.512 11.968-8.448 12.064s-7.872 12.16-17.632 26.816c0 0-21.216 31.808-21.216 82.304 0 74.24 39.968 108.064 89.216 108.064 49.312 0 89.248-33.824 89.248-108.064 0-50.496-21.216-82.304-21.216-82.304-9.76-14.656-17.696-26.72-17.664-26.816 0.064-0.096-1.824-2.88-4.16-6.112s-4.288-13.696-4.288-13.696c-0.032 0-0.032-1.92-0.032-4.256 0 0 0 0 0-2.112 0-47.328 76.672-52.576 112.704-61.152 19.744-4.672 23.168-11.52 23.168-11.52 7.808-15.776 14.176-28.672 14.208-28.672 0.064-0.032 0.064-4.32 0.064-9.568zM992 960h-32v-1024h32c17.6 0 32 14.4 32 32v960c0 17.6-14.4 32-32 32z" />
<glyph unicode="&#xe044;" d="M288 960c-17.6 0-32-14.4-32-32v-960c0-17.6 8.992-20.736 20-7.008l216.032 270.016c10.976 13.76 28.992 13.76 40 0l216-270.016c10.976-13.728 19.968-10.592 19.968 7.008v960c0 17.6-14.4 32-32 32h-448z" />
<glyph unicode="&#xe046;" d="M512 542.976c-44 0-81.696-15.68-112.992-47.008-31.36-31.328-47.008-68.992-47.008-112.992s15.648-81.696 47.008-112.992c31.328-31.328 68.992-47.008 112.992-47.008s81.664 15.648 112.992 47.008c31.328 31.328 47.008 68.992 47.008 112.992s-15.68 81.664-47.008 112.992c-31.328 31.328-68.992 47.008-112.992 47.008zM928 766.976h-29.728c-0.096 0-0.192 0-0.288 0h-148l-44 89.984c-4 10.656-14.016 19.648-30.016 27.008-16 7.328-32.672 11.008-49.984 11.008h-244c-17.344 0-33.696-3.68-48.992-11.008-15.328-7.328-25.664-16.32-30.976-26.976l-42.016-90.016h-132c-0.032 0-0.032 0-0.064 0h-31.936c-53.024 0-96-42.976-96-96v-542.976c0-0.16 0.064-0.352 0.064-0.512s-0.064-0.352-0.064-0.544v-32c0-52.992 42.976-96 96-96h32c0.096 0 0.224 0.032 0.32 0.032h767.36c0.096 0 0.224-0.032 0.32-0.032h32c53.024 0 96 43.008 96 96v576c0 53.056-42.976 96.032-96 96.032zM692.992 201.984c-49.984-49.984-110.336-75.008-180.992-75.008-70.688 0-131.008 24.992-180.992 75.008s-75.008 110.304-75.008 180.992c0 70.656 24.992 131.008 75.008 180.992s110.304 75.008 180.992 75.008c70.656 0 131.008-24.992 180.992-75.008s75.008-110.336 75.008-180.992c0-70.688-24.992-130.976-75.008-180.992z" />
<glyph unicode="&#xe056;" d="M1015.008 820.992c5.984-6.688 8.992-14.688 8.992-24v-126.016c0-9.344-3.008-16.992-8.992-23.008s-13.696-8.992-23.008-8.992h-960c-9.344 0-16.992 3.008-23.008 8.992s-8.992 13.664-8.992 23.008v126.016c0 9.312 3.008 17.312 8.992 24 6.016 6.656 13.664 9.984 23.008 9.984h960c9.312 0 16.992-3.328 23.008-9.984zM1015.008 500.992c5.984-6.688 8.992-14.688 8.992-24v-126.016c0-9.344-3.008-16.992-8.992-23.008s-13.696-8.992-23.008-8.992h-960c-9.344 0-16.992 3.008-23.008 8.992s-8.992 13.664-8.992 23.008v126.016c0 9.312 3.008 17.312 8.992 24 6.016 6.656 13.664 9.984 23.008 9.984h960c9.312 0 16.992-3.328 23.008-9.984zM1015.008 180.992c5.984-6.688 8.992-14.688 8.992-24v-126.016c0-9.344-3.008-16.992-8.992-23.008s-13.696-8.992-23.008-8.992h-960c-9.344 0-16.992 3.328-23.008 9.984-5.984 6.688-8.992 14.016-8.992 22.016v126.016c0 9.312 3.008 17.312 8.992 24 6.016 6.656 13.664 9.984 23.008 9.984h960c9.312 0 16.992-3.328 23.008-9.984z" />
<glyph unicode="&#xe059;" d="M823.552 570.592c-15.104-9.056-39.776-23.872-54.88-32.928l-37.248-22.336c-15.072-9.088-27.424-2.080-27.424 15.488v205.184c0 17.6-14.4 32-32 32h-640c-17.6 0-32-14.4-32-32v-640c0-17.6 14.4-32 32-32h640c17.6 0 32 14.4 32 32v207.84c0 17.6 12.352 24.608 27.424 15.52l37.248-22.336c15.104-9.056 39.776-23.872 54.88-32.928l172.992-103.872c15.104-9.056 27.456-2.048 27.456 15.552v209.6c0 17.6 0 46.4 0 64v209.536c0 17.6-12.352 24.608-27.424 15.52l-173.024-103.84z" />
<glyph unicode="&#xe062;" d="M526.496-38.304c0.064 0.16 0.192 0.288 0.256 0.48 88.096 153.824 337.248 557.344 337.248 677.824 0 256-211.2 320-352 320s-352-64-352-320c0-120.448 249.152-523.968 337.248-677.824 0.064-0.192 0.192-0.32 0.256-0.48 0.32-0.512 0.672-1.152 0.96-1.664 0.032 0.032 0.064 0.064 0.096 0.096 2.816-4.608 7.648-7.84 13.44-7.84s10.624 3.232 13.44 7.84c0.032-0.032 0.064-0.064 0.096-0.096 0.288 0.512 0.64 1.152 0.96 1.664zM400 640c0 61.856 50.144 112 112 112s112-50.144 112-112c0-61.888-50.144-112-112-112s-112 50.112-112 112z" />
<glyph unicode="&#xe065;" d="M701.6 556.448l-147.744 147.744c0 0 0 0-49.248-49.248s-49.248-49.248-197.056-98.56c-196.96-196.96-196.992-393.984-196.992-393.984l-49.248-49.216c0 0-49.248-49.28 0-98.56l295.52 295.52 5.024 3.584c-19.040 38.976-12.768 87.2 19.584 119.488 40.8 40.832 107.008 40.832 147.776 0.096s40.768-106.976-0.032-147.808c-32.416-32.32-80.576-38.592-119.52-19.584l-3.584-5.024-295.52-295.52c49.248-49.248 98.496 0 98.496 0l49.216 49.248c0 0 197.088 0 394.080 197.056 49.248 147.776 49.248 147.776 98.496 197.024s49.248 49.248 49.248 49.248l-98.496 98.496zM1006.496 709.408l-200.992 200.992c-12.448 12.448-32.8 12.448-45.248 0l-157.152-156.96 246.24-246.24 157.152 156.96c12.448 12.448 12.448 32.8 0 45.248z" />
<glyph unicode="&#xe067;" d="M1024 928c0 17.696-14.304 32-32 32h-960c-17.696 0-32-14.304-32-32v-960c0-17.696 14.304-32 32-32h960c17.696 0 32 14.304 32 32v960zM476 184c-9.376-8-18.688-8-28 0l-54.016 56c-1.376 1.312-4 4-8 8s-7.68 7.648-11.008 11.008c-3.36 3.328-6.368 5.664-8.992 7.008l-125.984 133.984c-4 4-6.016 8.672-6.016 14.016 0 5.312 1.984 9.984 6.016 14.016l56 49.984c4 2.656 8.64 4 14.016 4 5.312 0 9.984-1.344 14.016-4l124-128c9.312-9.344 18.624-9.344 28 0l286.016 284c9.312 9.312 17.984 9.312 25.984 0l54.016-54.016c9.312-9.344 9.312-18.688 0-28l-366.048-368z" />
<glyph unicode="&#xe072;" d="M896 446.976c0-12-5.344-21.344-16-28l-832-480c-5.344-2.656-10.688-4-16-4-5.344 0-10.688 1.344-16 4-10.688 6.688-16 16-16 28v960c0 12 5.312 21.312 16 28 10.656 6.656 21.312 6.656 32 0l832-480c10.656-6.688 16-16 16-28z" />
<glyph unicode="&#xe073;" d="M300.992 939.968c12.672-12.672 19.008-27.68 19.008-44.992v-896c0-17.312-6.336-32.32-19.008-44.992s-27.68-19.008-44.992-19.008h-192c-17.344 0-32.352 6.336-44.992 19.008-12.704 12.672-19.008 27.68-19.008 44.992v896c0 17.312 6.304 32.32 19.008 44.992 12.64 12.672 27.648 19.008 44.992 19.008h192c17.312 0 32.32-6.336 44.992-19.008zM940.992 939.968c12.672-12.672 19.008-27.68 19.008-44.992v-896c0-17.312-6.336-32.32-19.008-44.992s-27.68-19.008-44.992-19.008h-192c-17.344 0-32.352 6.336-44.992 19.008-12.704 12.672-19.008 27.68-19.008 44.992v896c0 17.312 6.304 32.32 19.008 44.992 12.64 12.672 27.648 19.008 44.992 19.008h192c17.312 0 32.32-6.336 44.992-19.008z" />
<glyph unicode="&#xe079;" d="M214.56 360.32c-12.416 12.48-12.384 32.864 0.064 45.312l402.752 402.72c12.448 12.448 32.672 12.288 44.896-0.352l83.424-86.048c12.256-12.64 12.032-33.088-0.512-45.44l-276.448-273.024c-12.544-12.352-12.576-32.64-0.096-45.056l276.64-274.88c12.48-12.416 12.512-32.736 0.064-45.184l-82.752-82.752c-12.448-12.448-32.768-12.416-45.184 0.032l-402.848 404.672z" />
<glyph unicode="&#xe080;" d="M408.544-44.288c-12.384-12.512-32.8-12.64-45.344-0.288l-84.416 83.104c-12.544 12.352-12.608 32.64-0.16 45.088l276.736 276.736c12.448 12.448 12.352 32.704-0.224 45.024l-276.288 271.2c-12.576 12.32-12.8 32.736-0.576 45.376l83.424 86.048c12.256 12.64 32.48 12.768 44.896 0.352l402.752-402.752c12.448-12.448 12.512-32.864 0.096-45.344l-400.896-404.544z" />
<glyph unicode="&#xe084;" d="M1024 421.536c0-134.048-47.392-248.48-142.24-343.328-94.848-94.816-209.312-142.208-343.328-142.208-134.080 0-248.48 47.424-343.328 142.24-94.848 94.848-142.24 209.28-142.24 343.328 0 134.016 47.392 248.48 142.24 343.328s209.216 142.272 343.328 142.272c134.016 0 248.48-47.424 343.328-142.272 94.848-94.88 142.24-209.344 142.24-343.36zM851.392 546.72l-51.232 51.232c-7.584 8.832-15.84 8.832-24.672 0l-271.264-269.344c-8.864-8.864-17.728-8.864-26.528 0l-117.632 121.376c-3.776 2.528-8.224 3.808-13.248 3.808-5.12 0-9.504-1.28-13.28-3.808l-53.12-47.424c-2.528-3.776-3.776-8.224-3.776-13.28 0-5.088 1.248-9.472 3.776-13.28l121.408-125.184c15.168-16.448 23.328-25.312 24.672-26.56l51.232-53.12c8.8-7.584 17.664-7.584 26.528 0l347.136 348.992c8.832 8.896 8.832 17.76 0 26.592z" />
<glyph unicode="&#xe085;" d="M881.76 764.992c-189.632 189.504-497.088 189.504-686.72 0-189.6-189.568-189.6-497.12 0-686.752 189.632-189.728 497.152-189.632 686.72 0 189.568 189.44 189.568 497.184 0 686.752zM517.984 30.912c-52.8 0-95.808 42.624-95.808 94.944 0 53.728 42.080 95.744 95.808 95.744 52.352 0 94.944-42.944 94.944-95.744-0.032-51.52-43.488-94.944-94.944-94.944zM584.672 363.776v-52.576c0-25.76-10.048-35.744-35.648-35.744h-68.672c-25.632 0-35.52 9.984-35.52 35.744v117.6c0 29.632 30.464 38.464 57.312 46.336 6.528 1.984 13.344 3.904 20.192 6.144 34.496 12.576 56.064 28.16 56.064 67.008 0 12.64 0 50.976-62.272 50.976-38.368 0-73.248-14.816-94.112-23.584-11.68-4.96-17.504-7.456-23.424-7.456-12.032 0-23.392 9.792-25.888 22.112l-23.744 61.472c-2.912 5.632-2.912 11.36-2.912 16 0 46.016 143.36 71.328 190.848 71.328 119.744 0 200.224-76.992 200.224-191.744-0.064-124.864-94.336-163.52-152.448-183.616z" />
<glyph unicode="&#xe086;" d="M881.76 764.96c-189.568 189.504-497.088 189.504-686.688 0-189.568-189.6-189.568-497.152 0-686.752 189.664-189.696 497.184-189.6 686.688 0 189.664 189.472 189.664 497.152 0 686.752zM530.592 823.168c51.296 0 92.992-41.664 92.992-92.992 0-51.808-41.728-93.888-92.992-93.888-51.808 0-93.92 42.048-93.92 93.888 0 52.16 41.248 92.992 93.92 92.992zM680.096 139.296c0-19.52-9.568-29.088-29.024-29.088h-239.904c-19.552 0-29.024 9.568-29.024 29.088v61.152c0 19.52 9.472 28.992 29.024 28.992h44.352v258.144h-45.28c-19.488 0-29.024 9.408-29.024 28.992v61.056c0 19.616 9.536 29.088 29.024 29.088h167.424c19.552 0 29.056-9.472 29.056-29.088v-348.192h44.352c19.456 0 29.024-9.472 29.024-28.992v-61.152z" />
<glyph unicode="&#xe096;" d="M864 896h-256c-17.6 0-21.824-10.176-9.376-22.624l92.096-92.096-171.648-171.648c-12.448-12.448-12.448-32.8 0-45.248l45.312-45.312c12.448-12.448 32.8-12.448 45.248 0l171.648 171.68 92.096-92.128c12.448-12.448 22.624-8.224 22.624 9.376v256c0 17.6-14.4 32-32 32zM96 64h256c17.6 0 21.824 10.176 9.376 22.624l-92.096 92.096 171.648 171.648c12.448 12.448 12.448 32.8 0 45.248l-45.312 45.312c-12.448 12.448-32.8 12.448-45.248 0l-171.648-171.68-92.096 92.128c-12.448 12.48-22.624 8.256-22.624-9.376v-256c0-17.6 14.4-32 32-32z" />
<glyph unicode="&#xe097;" d="M544 512h256c17.568 0 21.824 10.176 9.376 22.624l-92.128 92.096 171.68 171.648c12.448 12.448 12.448 32.8 0 45.248l-45.312 45.312c-12.448 12.448-32.8 12.448-45.248 0l-171.68-171.68-92.064 92.128c-12.448 12.48-22.624 8.256-22.624-9.376v-256c0-17.6 14.4-32 32-32zM416 448h-256c-17.568 0-21.824-10.176-9.376-22.624l92.128-92.096-171.68-171.68c-12.448-12.448-12.448-32.8 0-45.248l45.312-45.312c12.448-12.448 32.8-12.448 45.248 0l171.68 171.712 92.064-92.16c12.448-12.48 22.624-8.256 22.624 9.376v256.032c0 17.6-14.4 32-32 32z" />
<glyph unicode="&#xe101;" d="M881.76 764.992c-189.632 189.536-497.088 189.536-686.72 0-189.6-189.568-189.6-497.12 0-686.784 189.632-189.696 497.152-189.568 686.72 0 189.568 189.472 189.568 497.216 0 686.784zM504.096 739.2h100.64c30.176 0 34.688-17.568 34.688-28.16 0-4.192 0-4.192-0.288-9.088l-0.736-10.56-20.672-367.968c-2.944-28.352-15.232-33.76-35.52-33.76h-53.632c-20.32 0-32.64 5.408-35.52 32.928l-21.44 379.36c-0.352 4.96-0.352 4.96-0.352 9.088 0.032 10.592 4.288 28.16 32.832 28.16zM555.84 30.912c-52.864 0-95.808 42.624-95.808 94.912 0 53.76 42.080 95.776 95.808 95.776 52.288 0 94.88-42.912 94.88-95.776 0-51.488-43.488-94.912-94.88-94.912z" />
<glyph unicode="&#xe103;" d="M985.024 907.136c7.2 16.064-0.064 23.328-16.096 16.064l-939.776-423.776c-16.032-7.232-14.752-13.152 2.848-13.152h486.272c17.6 0 32-14.4 32-32v-486.272c0-17.6 5.888-18.848 13.056-2.784l421.696 941.92z" />
<glyph unicode="&#xe105;" d="M0.032 413.263v-38.753c232.615-387.692 775.352-387.692 1007.967 0v38.753c-232.615 387.692-775.352 387.692-1007.967 0zM504.016 161.255c-128.58 0-232.615 104.227-232.615 232.615 0 128.58 104.035 232.615 232.615 232.615 128.42 0 232.615-104.035 232.615-232.615 0-128.388-104.195-232.615-232.615-232.615zM620.339 393.87c0-64.258-52.098-116.292-116.324-116.292s-116.324 52.034-116.324 116.292c0 64.418 52.098 116.292 116.324 116.292s116.324-51.906 116.324-116.292z" />
<glyph unicode="&#xe109;" d="M448 480c0-17.6-14.4-32-32-32h-64c-17.6 0-32 14.4-32 32v64c0 17.6 14.4 32 32 32h64c17.6 0 32-14.4 32-32v-64zM640 480c0-17.6-14.4-32-32-32h-64c-17.6 0-32 14.4-32 32v64c0 17.6 14.4 32 32 32h64c17.6 0 32-14.4 32-32v-64zM832 480c0-17.6-14.4-32-32-32h-64c-17.6 0-32 14.4-32 32v64c0 17.6 14.4 32 32 32h64c17.6 0 32-14.4 32-32v-64zM256 288c0-17.6-14.4-32-32-32h-64c-17.6 0-32 14.4-32 32v64c0 17.6 14.4 32 32 32h64c17.6 0 32-14.4 32-32v-64zM448 288c0-17.6-14.4-32-32-32h-64c-17.6 0-32 14.4-32 32v64c0 17.6 14.4 32 32 32h64c17.6 0 32-14.4 32-32v-64zM640 288c0-17.6-14.4-32-32-32h-64c-17.6 0-32 14.4-32 32v64c0 17.6 14.4 32 32 32h64c17.6 0 32-14.4 32-32v-64zM832 288c0-17.6-14.4-32-32-32h-64c-17.6 0-32 14.4-32 32v64c0 17.6 14.4 32 32 32h64c17.6 0 32-14.4 32-32v-64zM256 96c0-17.6-14.4-32-32-32h-64c-17.6 0-32 14.4-32 32v64c0 17.6 14.4 32 32 32h64c17.6 0 32-14.4 32-32v-64zM448 96c0-17.6-14.4-32-32-32h-64c-17.6 0-32 14.4-32 32v64c0 17.6 14.4 32 32 32h64c17.6 0 32-14.4 32-32v-64zM640 96c0-17.6-14.4-32-32-32h-64c-17.6 0-32 14.4-32 32v64c0 17.6 14.4 32 32 32h64c17.6 0 32-14.4 32-32v-64zM864 832c-17.6 0-32 14.4-32 32v64c0 17.6-14.4 32-32 32h-128c-17.6 0-32-14.4-32-32v-64c0-17.6-14.4-32-32-32h-256c-17.6 0-32 14.4-32 32v64c0 17.6-14.4 32-32 32h-128c-17.6 0-32-14.4-32-32v-64c0-17.6-14.4-32-32-32h-64c-17.6 0-32-14.4-32-32v-832c0-17.6 14.4-32 32-32h896c17.6 0 32 14.4 32 32v832c0 17.6-14.4 32-32 32h-64zM704 864c0 17.6 14.4 32 32 32v0c17.6 0 32-14.4 32-32v-64c0-17.6-14.4-32-32-32v0c-17.6 0-32 14.4-32 32v64zM192 864c0 17.6 14.4 32 32 32v0c17.6 0 32-14.4 32-32v-64c0-17.6-14.4-32-32-32v0c-17.6 0-32 14.4-32 32v64zM896 32c0-17.6-14.4-32-32-32h-768c-17.6 0-32 14.4-32 32v576c0 17.6 14.4 32 32 32h768c17.6 0 32-14.4 32-32v-576z" />
<glyph unicode="&#xe111;" d="M928.029 960h-832.026c-53.026 0-96.003-42.977-96.003-96.003v-576.018c0-53.026 42.977-96.003 96.003-96.003h288.009c36.001-1.344 60.642-9.344 73.986-24.001l289.993-225.991c4.032-4.032 7.36-6.016 10.048-6.016 6.624 0 9.984 4.672 9.984 14.016v214.023c0 8 2.304 14.656 7.008 20.001 4.608 5.28 10.304 7.968 16.993 7.968h136.004c53.026 0 96.003 42.977 96.003 96.003v576.018c0 53.026-42.977 96.003-96.003 96.003z" />
<glyph unicode="&#xe112;" d="M256 448c0-70.692-57.308-128-128-128s-128 57.308-128 128c0 70.692 57.308 128 128 128s128-57.308 128-128zM640 448c0-70.692-57.308-128-128-128s-128 57.308-128 128c0 70.692 57.308 128 128 128s128-57.308 128-128zM1024 448c0-70.692-57.308-128-128-128s-128 57.308-128 128c0 70.692 57.308 128 128 128s128-57.308 128-128z" />
<glyph unicode="&#xe113;" d="M425.792 653.664c12.512 12.416 32.896 12.352 45.344-0.096l402.752-402.752c12.448-12.448 12.288-32.672-0.352-44.896l-86.048-83.424c-12.64-12.256-33.056-12-45.376 0.576l-271.2 276.32c-12.32 12.576-32.608 12.672-45.024 0.224l-276.768-276.8c-12.448-12.448-32.704-12.384-45.056 0.192l-83.136 84.352c-12.352 12.576-12.224 32.928 0.288 45.344l404.576 400.96z" />
<glyph unicode="&#xe114;" d="M19.712 523.648c-12.512 12.416-12.64 32.768-0.288 45.344l83.136 84.384c12.352 12.576 32.64 12.64 45.056 0.192l276.736-276.736c12.448-12.448 32.704-12.352 45.024 0.224l271.2 276.32c12.32 12.576 32.736 12.8 45.376 0.576l86.048-83.424c12.64-12.256 12.768-32.48 0.352-44.896l-402.72-402.816c-12.448-12.448-32.832-12.512-45.344-0.096l-404.576 400.928z" />
<glyph unicode="&#xe117;" d="M0 0c0-35.2 28.8-64 64-64h832c35.2 0 64 28.8 64 64v512c0 35.168-28.8 64-64 64h-384c-35.2 0-82.976 21.664-106.144 48.128l-27.68 31.712c-23.2 26.496-70.976 48.16-106.176 48.16h-208c-35.2 0-64-28.832-64-64v-640z" />
<glyph unicode="&#xe122;" d="M896 896c0 0-165.504-165.248-342.816-188.928-19.136-52.128-29.184-106.816-29.184-163.072s10.048-110.944 29.184-163.072c177.312-23.68 342.816-188.928 342.816-188.928 128 192 128 512 0 704zM448 192c-33.184 33.248-48.992 118.016-47.744 192h47.744c0 60.736 0 279.552 0 320-134.176 0-320 0-320 0-70.688 0-128-71.68-128-160s57.312-160 128-160h92.64c17.056-41.504 35.36-93.76 35.36-128 0-64 64-192 128-192s128 64 64 128zM128 464c-35.36 0-64 35.872-64 80s28.64 80 64 80v-160z" />
<glyph unicode="&#xe136;" d="M664.8 356.448h-98.048c-5.856 18.752-14.048 36.576-24.032 53.088l65.024 65.184c15.36 15.168 15.36 39.968 0 55.296l-27.584 27.552c-15.328 15.264-40.096 15.168-55.328 0l-66.176-66.048c-17.856 10.176-37.248 18.016-57.856 23.328v85.984c0 21.568-17.408 39.168-39.072 39.168h-39.104c-21.536 0-39.072-17.6-39.072-39.168v-85.984c-22.464-5.632-43.552-14.624-62.912-26.4l-55.328 55.328c-15.264 15.232-40.128 15.264-55.328 0l-27.744-27.584c-15.232-15.264-15.072-40.064 0.128-55.392l56.352-56.416c-11.872-20.736-20.8-43.424-25.92-67.488h-73.6c-21.664-0.032-39.2-17.536-39.2-39.168v-39.072c0-21.568 17.536-39.040 39.2-39.040h78.592c7.104-23.552 17.888-45.344 31.616-65.024l-53.152-53.184c-15.328-15.392-15.328-40.192-0.16-55.424l27.648-27.584c15.328-15.232 40.128-15.232 55.392 0.032l59.392 59.328c20-9.856 41.728-17.056 64.576-20.8v-81.76c0-21.6 17.472-39.136 39.072-39.168h39.168c21.536 0.032 39.072 17.568 39.072 39.168v91.84c19.68 6.976 38.368 16.352 55.296 28.224l62.976-63.040c15.328-15.264 40-15.264 55.328 0l27.616 27.648c15.328 15.264 15.328 39.968-0.128 55.328l-68.96 69.056c8.48 17.216 15.072 35.488 19.136 54.848h93.152c21.664 0 39.168 17.408 39.2 39.168v39.072c-0.064 21.536-17.568 39.104-39.232 39.104zM342.24 190.24c-53.984 0-97.728 43.616-97.728 97.76 0 54.016 43.744 97.696 97.728 97.696 54.016 0 97.792-43.68 97.792-97.696 0-54.112-43.744-97.76-97.792-97.76zM999.072 779.616h-62.432c-3.712 11.904-8.896 23.2-15.264 33.792l41.344 41.472c9.792 9.632 9.792 25.44 0 35.136l-17.568 17.568c-9.728 9.728-25.472 9.728-35.168 0l-42.112-42.016c-11.36 6.496-23.68 11.488-36.8 14.848v54.72c0 13.664-11.136 24.864-24.896 24.864h-24.832c-13.728 0-24.864-11.2-24.864-24.896v-54.72c-14.272-3.584-27.712-9.28-40.032-16.736l-35.264 35.2c-9.664 9.664-25.472 9.728-35.2 0l-17.632-17.568c-9.728-9.696-9.6-25.504 0.064-35.232l35.872-35.904c-7.584-13.216-13.28-27.648-16.544-42.976h-46.848c-13.728 0-24.896-11.104-24.896-24.992v-24.768c0-13.728 11.168-24.832 24.928-24.832h50.016c4.544-15.040 11.36-28.864 20.128-41.408l-33.888-33.856c-9.696-9.792-9.696-25.568-0.032-35.296l17.568-17.568c9.792-9.696 25.568-9.696 35.264 0.064l37.824 37.728c12.704-6.24 26.528-10.848 41.088-13.248v-52.032c0-13.728 11.104-24.864 24.864-24.864h24.864c13.728 0 24.864 11.168 24.864 24.864v58.464c12.512 4.48 24.416 10.336 35.2 17.984l40.032-40.128c9.76-9.792 25.472-9.792 35.264 0l17.568 17.568c9.792 9.728 9.792 25.44-0.064 35.232l-43.904 43.936c5.408 11.008 9.6 22.624 12.192 34.912h59.296c13.792 0 24.832 11.168 24.928 24.928v24.864c-0.096 13.696-11.168 24.896-24.928 24.896zM793.824 673.856c-34.336 0-62.208 27.776-62.208 62.24 0 34.336 27.872 62.080 62.208 62.080 34.368 0 62.208-27.744 62.208-62.080 0-34.464-27.84-62.24-62.208-62.24z" />
<glyph unicode="&#xe140;" d="M992 960h-256c-17.6 0-21.824-10.176-9.376-22.624l92.096-92.096-171.648-171.648c-12.448-12.448-12.448-32.8 0-45.248l45.312-45.312c12.448-12.448 32.8-12.448 45.248 0l171.648 171.712 92.096-92.16c12.448-12.448 22.624-8.224 22.624 9.376v256c0 17.6-14.4 32-32 32zM22.624 662.624l92.096 92.16 171.648-171.68c12.448-12.448 32.8-12.448 45.248 0l45.248 45.28c12.448 12.448 12.448 32.8 0 45.248l-171.584 171.648 92.096 92.096c12.448 12.448 8.224 22.624-9.376 22.624h-256c-17.6 0-32-14.4-32-32v-256c0-17.6 10.176-21.824 22.624-9.376zM1001.376 233.376l-92.16-92.096-171.584 171.648c-12.448 12.448-32.8 12.448-45.248 0l-45.312-45.376c-12.448-12.448-12.448-32.8 0-45.248l171.648-171.52-92.096-92.16c-12.448-12.448-8.224-22.624 9.376-22.624h256c17.6 0 32 14.4 32 32v256c0 17.6-10.176 21.824-22.624 9.376zM331.616 312.864c-12.448 12.448-32.8 12.448-45.248 0l-171.648-171.584-92.096 92.096c-12.448 12.448-22.624 8.224-22.624-9.376v-256c0-17.6 14.4-32 32-32h256c17.6 0 21.824 10.176 9.376 22.624l-92.096 92.16 171.616 171.52c12.448 12.448 12.448 32.8 0 45.248l-45.28 45.312z" />
<glyph unicode="&#xe142;" d="M213.824-45.504c-39.264 0-78.016 18.112-114.4 54.528l-5.28 5.216c-37.504 36.96-147.488 189.248 0.544 345.024 74.528 78.432 177.312 180.064 286.112 287.584 58.464 57.76 119.328 117.92 179.872 178.432 109.312 109.184 189.28 84.288 313.184-33.824 146.432-139.392 173.248-276.576 109.952-349.632-84.128-96.928-402.24-415.264-415.744-428.736-17.824-17.824-46.688-17.824-64.512 0-17.856 17.824-17.856 46.688 0 64.512 3.264 3.296 329.344 329.44 411.328 424.032 18.784 21.696 21.664 104.256-103.904 223.808-72.32 68.896-93.792 127.296-185.76 35.328-60.672-60.672-121.696-120.96-180.288-178.784-108.288-107.072-210.592-208.128-284.128-285.536-86.336-90.944-41.984-178.432-2.592-217.248l5.728-5.696c33.536-33.44 60.928-42.496 109.952 6.56 13.664 13.632 41.984 41.152 77.632 75.776 98.72 95.936 282.464 274.528 319.552 321.024 11.808 14.688 28.96 50.304 12.576 64.672-22.592 19.808-64.16-20.192-76.288-32.832-128.736-135.264-296.928-297.152-298.624-298.784-18.112-17.472-47.008-16.928-64.48 1.28-17.472 18.144-16.928 47.008 1.216 64.48 1.664 1.536 168.512 162.176 295.808 295.872 82.592 86.784 158.752 76.832 202.368 38.656 53.216-46.496 40.672-137.856-1.344-190.304-37.504-47.008-182.208-188.544-327.264-329.376-35.2-34.304-63.2-61.536-76.672-74.976-40.704-40.672-82.912-61.056-124.544-61.056v0z" />
<glyph unicode="&#xe149;" d="M1024 446.976c0-141.344-49.984-262.016-150.016-361.984s-220.672-150.016-361.984-150.016c-141.376 0-262.016 49.984-361.984 150.016s-150.016 220.64-150.016 361.984c0 141.312 49.984 261.984 150.016 361.984s220.608 150.016 361.984 150.016c141.312 0 262.016-49.984 361.984-150.016s150.016-220.672 150.016-361.984zM820 446.976c0 85.312-30.016 158.016-89.984 217.984s-132.704 90.016-218.016 90.016c-85.376 0-158.016-30.016-217.984-89.984s-89.984-132.672-89.984-217.984c0-85.344 30.016-158.016 89.984-217.984s132.64-89.984 217.984-89.984c85.312 0 158.016 30.016 217.984 89.984s90.016 132.608 90.016 217.952zM665.984 446.976c0-42.688-15.008-79.008-44.992-108.992s-66.368-45.024-108.992-45.024c-42.688 0-79.008 15.008-108.992 44.992s-44.992 66.304-44.992 108.992c0 42.656 15.008 79.008 44.992 108.992s66.304 45.024 108.992 45.024c42.624 0 79.008-15.008 108.992-44.992s44.992-66.336 44.992-108.992z" />
<glyph unicode="&#xe157;" d="M1024-32c0-17.696-14.304-32-32-32h-960c-17.696 0-32 14.304-32 32v960c0 17.696 14.304 32 32 32h960c17.696 0 32-14.304 32-32v-960z" />
<glyph unicode="&#xe177;" d="M992 768h-960c-17.696 0-32-14.304-32-32v-704c0-17.696 14.304-32 32-32h960c17.696 0 32 14.304 32 32v704c0 17.696-14.304 32-32 32zM64 128v192h896v-192h-896zM256 576c0-35.2-28.8-64-64-64s-64 28.8-64 64c0 35.168 28.8 64 64 64s64-28.832 64-64z" />
<glyph unicode="&#xe180;" d="M992 256h-64v128c0 35.296-28.704 64-64 64h-320v128h128c17.696 0 32 14.304 32 32v320c0 17.696-14.304 32-32 32h-320c-17.696 0-32-14.304-32-32v-320c0-17.696 14.304-32 32-32h128v-128h-320c-35.296 0-64-28.704-64-64v-128h-64c-17.696 0-32-14.304-32-32v-256c0-17.696 14.304-32 32-32h192c17.696 0 32 14.304 32 32v256c0 17.696-14.304 32-32 32h-64v128h320v-128h-64c-17.696 0-32-14.304-32-32v-256c0-17.696 14.304-32 32-32h192c17.696 0 32 14.304 32 32v256c0 17.696-14.304 32-32 32h-64v128h320l0.032-128h-64.032c-17.696 0-32-14.304-32-32v-256c0-17.696 14.304-32 32-32h192c17.696 0 32 14.304 32 32v256c0 17.696-14.304 32-32 32z" />
<glyph unicode="&#xe184;" d="M384 0l256 128v768l-256-128zM29.728 884.128c-16.352 6.528-29.728-2.528-29.728-20.128v-704c0-17.6 13.376-37.344 29.728-43.872l290.272-116.128v768l-290.272 116.128zM994.272 779.872l-290.272 116.128v-768l290.272-116.128c16.352-6.528 29.728 2.528 29.728 20.128v704c0 17.6-13.376 37.344-29.728 43.872z" />
<glyph unicode="&#xe185;" d="M896 960c-70.688 0-128-57.312-128-128 0-45.408 23.808-85.056 59.456-107.776l-118.176-404.736c-1.824 0.032-3.456 0.512-5.28 0.512-20.416 0-39.392-5.216-56.544-13.728l-146.016 156.448c6.336 15.2 9.92 31.808 9.92 49.28 0 70.688-57.312 128-128 128s-128-57.312-128-128c0-38.752 17.6-73.088 44.8-96.576l-142.944-227.104c-9.408 2.208-19.136 3.68-29.216 3.68-70.688 0-128-57.312-128-128s57.312-128 128-128 128 57.312 128 128c0 37.504-16.448 70.944-42.144 94.336l143.648 228.288c8.352-1.728 16.96-2.624 25.824-2.624 29.792 0 56.8 10.592 78.56 27.616l136.8-147.040c-14.24-20.608-22.688-45.568-22.688-72.576 0-70.688 57.312-128 128-128s128 57.312 128 128c0 46.208-24.736 86.368-61.504 108.864l117.984 403.872c2.528-0.096 4.928-0.736 7.52-0.736 70.688 0 128 57.312 128 128s-57.312 128-128 128zM128 0c-35.328 0-64 28.672-64 64s28.672 64 64 64 64-28.672 64-64-28.672-64-64-64zM383.328 448c-35.328 0-64 28.672-64 64s28.672 64 64 64 64-28.672 64-64-28.64-64-64-64zM768 192c0-35.328-28.672-64-64-64s-64 28.672-64 64 28.672 64 64 64 64-28.672 64-64zM896 768c-35.328 0-64 28.672-64 64s28.672 64 64 64 64-28.672 64-64-28.672-64-64-64z" />
<glyph unicode="&#xe199;" d="M95.744 339.84l13.28 2.368c0.736-1.76 1.632-3.328 2.624-4.736l-3.36-36.8 8.32 32.128c1.184-0.64 2.336-0.896 3.392-0.8l8.992-23.552-5.632 25.184c0.768 0.8 1.44 1.888 1.984 3.2l23.264-17.632-21.984 25.184c0 1.888-0.16 3.744-0.512 5.632l11.488 9.024-13.472-2.368c-0.736 1.76-1.632 3.36-2.656 4.8l3.36 36.8-8.352-32.096c-1.088 0.544-2.144 0.832-3.168 0.768l-8.96 23.488 5.6-24.928c-0.864-0.8-1.6-1.952-2.176-3.36l-23.264 17.632 21.984-25.184c0-1.952 0.16-3.872 0.544-5.888l-11.296-8.864zM113.28 576.896l11.328 23.168c1.024 0 2.144 0.384 3.328 0.992l4.896-30.656 0.576 35.52c1.184 1.504 2.272 3.168 3.2 4.992l13.12-1.504-10.464 8.064c0.544 1.824 0.896 3.616 1.088 5.376l24.544 25.792-25.056-18.496c-0.416 1.28-0.96 2.304-1.664 3.008l8.32 24.896-11.52-23.552c-1.056 0-2.208-0.352-3.392-0.992l-4.896 30.624-0.576-35.52c-1.088-1.408-2.112-2.944-2.976-4.608l-13.056 1.504 10.368-8c-0.608-1.952-1.024-3.936-1.216-5.824l-24.608-25.76 25.056 18.496c0.416-1.312 0.992-2.368 1.76-3.104l-8.16-24.416zM453.984 140.448l24.896-5.664c0.128-1.568 0.672-3.136 1.44-4.64l-30.368-22.816 36 16.928c1.664-1.024 3.52-1.888 5.472-2.368l0.16-20.736 6.816 20c1.92 0.096 3.776 0.448 5.568 1.056l29.248-24.576-21.952 28.928c1.216 1.216 2.176 2.56 2.816 4.032l26.24-0.224-25.312 5.76c-0.096 1.632-0.64 3.2-1.44 4.672l30.368 22.848-36-16.96c-1.568 0.992-3.264 1.792-5.056 2.304l-0.16 20.64-6.72-19.744c-2.048-0.064-4.096-0.448-6.048-1.056l-29.248 24.544 21.952-28.896c-1.28-1.312-2.272-2.72-2.912-4.256l-25.76 0.224zM698.784 726.4l-24.992 5.6c-0.512 1.6-1.376 3.2-2.464 4.704l23.2 23.904-29.984-17.888c-1.856 1.056-3.776 1.888-5.76 2.432l-5.216 21.376-1.568-20.704c-1.824-0.096-3.456-0.512-5.056-1.12l-33.696 25.024 27.872-29.632c-0.864-1.312-1.472-2.688-1.696-4.192l-24.928-0.032 25.376-5.696c0.512-1.632 1.376-3.264 2.496-4.832l-23.168-23.904 30.016 17.888c1.696-0.992 3.488-1.76 5.312-2.304l5.184-21.312 1.568 20.48c1.952 0.064 3.776 0.48 5.504 1.152l33.696-25.024-27.872 29.6c0.896 1.344 1.504 2.816 1.76 4.416l24.416 0.064zM926.784 284.448l9.344 23.296c0.8-0.064 1.76 0.256 2.688 0.8l3.552-32 0.864 36.672c0.928 1.504 1.888 3.136 2.624 4.928l10.464-2.304-8.288 8.928c0.448 1.888 0.736 3.68 0.928 5.504l19.968 25.12-20.288-17.568c-0.32 1.312-0.704 2.4-1.28 3.2l6.976 25.216-9.504-23.616c-0.832 0.096-1.792-0.256-2.752-0.832l-3.552 32-0.864-36.672c-0.864-1.376-1.728-2.912-2.464-4.576l-10.4 2.304 8.192-8.864c-0.512-1.984-0.864-3.968-1.056-5.952l-19.968-25.12 20.288 17.568c0.32-1.376 0.736-2.496 1.376-3.296l-6.848-24.736zM932.864 435.936l10.624 3.936c0.448-1.664 1.024-3.136 1.696-4.48l-5.568-37.568 9.12 33.408c0.864-0.48 1.76-0.64 2.592-0.416l5.216-22.72-2.432 24.768c0.672 0.864 1.28 2.016 1.824 3.392l16.928-15.040-15.328 22.848c0.128 1.888 0.128 3.744 0 5.632l9.824 10.528-10.816-4c-0.448 1.696-1.024 3.2-1.696 4.576l5.568 37.568-9.12-33.408c-0.8 0.448-1.632 0.608-2.432 0.448l-5.184 22.656 2.4-24.544c-0.736-0.896-1.408-2.144-1.984-3.648l-16.928 15.040 15.328-22.848c-0.128-1.952-0.192-3.904-0.032-5.856l-9.6-10.272zM663.072 165.792l-24.8 2.080c-0.128 1.6-0.64 3.072-1.376 4.48l30.656 27.68-36.192-22.56c-1.664 0.8-3.456 1.408-5.408 1.632l0.064 21.056-7.072-21.312c-1.888-0.416-3.744-1.056-5.568-1.92l-28.864 20.64 21.504-26.144c-1.216-1.44-2.176-2.976-2.848-4.544l-26.208-3.648 25.184-2.112c0.128-1.6 0.64-3.136 1.376-4.576l-30.624-27.68 36.192 22.56c1.536-0.736 3.232-1.312 4.992-1.568l-0.096-20.992 7.008 21.12c2.016 0.384 4.096 1.056 6.016 1.984l28.928-20.64-21.568 26.144c1.28 1.504 2.304 3.104 2.944 4.736l25.76 3.584zM864.8 229.024l-2.816 20.128c1.312 1.504 2.432 3.264 3.456 5.056l28.576 3.072-25.312 5.76c0.384 1.984 0.544 3.808 0.352 5.504l17.472 19.264-18.976-14.432c-0.672 1.056-1.536 1.824-2.56 2.368l11.808 40.096-17.76-39.84c-1.44-0.416-2.88-1.088-4.288-2.048l-7.808 15.84 2.848-20.448c-1.312-1.504-2.496-3.328-3.488-5.184l-28.608-3.040 25.312-5.76c-0.352-1.856-0.48-3.552-0.384-5.12l-17.408-19.232 18.752 14.304c0.672-1.184 1.632-2.048 2.752-2.624l-11.808-40.128 17.76 39.808c1.504 0.448 3.008 1.152 4.448 2.176l7.68-15.52zM630.016 270.336l24.704-1.536c0.32-1.792 0.928-3.456 1.856-5.024l-27.2-32.768 33.216 27.072c1.76-0.864 3.584-1.472 5.568-1.664l2.176-24.096 4.64 24.672c1.856 0.512 3.616 1.312 5.312 2.304l30.784-22.56-24.16 29.184c1.056 1.696 1.888 3.424 2.336 5.248l25.472 5.12-25.088 1.536c-0.288 1.856-0.928 3.552-1.856 5.152l27.2 32.768-33.248-27.104c-1.632 0.8-3.328 1.408-5.12 1.632l-2.176 24-4.608-24.384c-1.984-0.512-3.904-1.344-5.76-2.464l-30.784 22.592 24.128-29.184c-1.088-1.76-1.952-3.616-2.368-5.504l-25.024-4.992zM408.288 507.264l-11.008 22.304c1.344 1.472 2.464 3.232 3.328 5.088l41.248-0.448-39.424 9.632c-0.128 2.080-0.544 4.096-1.344 5.92l19.264 18.72-23.136-13.248c-1.344 1.216-2.88 2.176-4.64 2.912l3.776 42.208-12.64-41.088c-1.952-0.288-3.872-0.832-5.632-1.696l-16.992 18.304 11.2-22.656c-1.408-1.504-2.56-3.296-3.424-5.216l-41.248 0.448 39.424-9.632c0.128-1.952 0.48-3.808 1.184-5.536l-19.2-18.656 22.88 13.088c1.408-1.376 3.104-2.432 4.96-3.232l-3.744-42.208 12.64 41.088c2.016 0.288 4 0.864 5.856 1.792l16.672-17.888zM561.568 326.144l16 21.632c1.888-0.576 3.872-0.768 5.888-0.704l14.944-40.128-6.016 42.912c1.888 1.12 3.488 2.496 4.864 4.192l24.064-9.44-20.608 15.872c0.608 1.92 0.896 3.872 0.896 5.92l39.488 17.088-41.824-7.936c-0.96 1.76-2.176 3.328-3.616 4.608l10.176 25.472-16.256-21.984c-1.888 0.608-3.904 0.832-5.984 0.768l-14.976 40.096 6.016-42.88c-1.696-1.056-3.264-2.336-4.544-3.84l-23.968 9.376 20.352-15.68c-0.704-2.048-1.024-4.192-1.056-6.368l-39.488-17.12 41.824 7.968c1.024-1.856 2.272-3.456 3.776-4.768l-9.952-25.056zM768.672 354.272l8.032-21.792c-1.248-1.472-2.304-3.232-3.2-5.088l-35.264-0.128 33.12-8.928c0-2.016 0.224-4 0.768-5.792l-17.632-18.72 20.608 13.376c1.056-1.184 2.368-2.112 3.808-2.816l-5.888-41.6 13.376 40.672c1.696 0.32 3.328 0.864 4.896 1.76l13.408-17.824-8.192 22.112c1.312 1.504 2.368 3.296 3.296 5.184l35.264 0.128-33.12 8.928c0.032 1.92-0.192 3.744-0.672 5.44l17.568 18.624-20.416-13.248c-1.088 1.344-2.464 2.368-4.032 3.136l5.888 41.632-13.376-40.672c-1.792-0.32-3.488-0.864-5.12-1.824l-13.12 17.44zM625.28 532.992l-14.848-20.928c-1.888 0.64-3.904 0.864-5.952 0.832l-17.408 39.808 8.576-42.336c-1.792-1.088-3.328-2.432-4.64-4.032l-24.768 9.792 21.664-16.064c-0.544-1.856-0.672-3.808-0.576-5.792l-38.784-16 41.632 6.944c1.088-1.76 2.368-3.328 3.936-4.608l-8.768-24.832 15.104 21.28c1.952-0.672 3.968-0.928 6.048-0.896l17.408-39.808-8.608 42.336c1.696 1.024 3.168 2.24 4.384 3.712l24.672-9.76-21.408 15.904c0.608 1.984 0.768 4.096 0.672 6.24l38.752 16-41.6-6.944c-1.152 1.824-2.496 3.456-4.128 4.8l8.64 24.352zM884.832 673.472l-8.128 20.224c0.864 0.16 1.568 0.64 2.080 1.344l27.872-23.36-26.944 28.128c-0.128 1.376-0.512 2.88-1.056 4.48l12.416 1.024-15.232 4.608c-0.928 1.504-1.984 3.008-3.2 4.416l1.248 24.48-7.264-18.816c-1.28 0.928-2.56 1.632-3.712 2.080l-12.032 21.088 8.256-20.544c-0.896-0.16-1.632-0.64-2.144-1.344l-27.84 23.36 26.912-28.128c0.16-1.312 0.448-2.688 0.96-4.16l-12.384-0.992 15.072-4.576c0.96-1.632 2.112-3.264 3.424-4.8l-1.248-24.48 7.264 18.816c1.376-0.96 2.688-1.696 3.904-2.144l11.776-20.704zM560.608 860.256l9.984 9.696c1.92-0.288 3.808-0.416 5.728-0.384l23.584-18.464-15.808 19.616c1.472 0.512 2.688 1.12 3.552 1.856l24.96-4.544-23.168 7.456c0.128 0.864-0.064 1.76-0.576 2.688l33.248 7.392-37.568-3.232c-1.344 0.8-2.88 1.536-4.512 2.144l3.552 11.52-10.112-9.856c-1.952 0.32-3.872 0.448-5.824 0.416l-23.616 18.464 15.808-19.648c-1.376-0.48-2.496-1.024-3.36-1.728l-24.864 4.544 22.944-7.36c-0.192-0.928 0-1.888 0.512-2.88l-33.216-7.392 37.568 3.2c1.408-0.832 2.976-1.6 4.704-2.208l-3.52-11.296zM208.544 435.168l-18.912-3.264c-0.704 1.792-1.696 3.392-2.816 4.832l10.816 39.232-16.992-34.528c-1.536 0.576-3.104 0.8-4.64 0.672l-8.608 24.48 3.68-26.432c-1.216-0.864-2.304-2.048-3.296-3.456l-29.504 17.376 26.464-25.472c-0.32-1.984-0.384-3.968-0.224-5.92l-17.536-10.272 19.2 3.328c0.736-1.856 1.728-3.456 2.88-4.96l-10.816-39.232 16.992 34.528c1.44-0.576 2.88-0.8 4.288-0.672l8.576-24.416-3.616 26.112c1.344 0.896 2.528 2.144 3.584 3.648l29.504-17.312-26.464 25.44c0.32 2.048 0.416 4.128 0.192 6.176l17.248 10.112zM483.040 49.28l-24.256 6.272c-0.224 1.248-0.832 2.528-1.664 3.744l27.584 16-33.376-10.912c-1.664 0.928-3.488 1.76-5.376 2.272l-1.536 16.544-5.216-15.392c-1.824 0.064-3.584-0.128-5.28-0.448l-29.632 21.632 22.912-24.576c-1.088-0.928-1.92-1.952-2.432-3.072l-25.184 2.048 24.64-6.368c0.224-1.28 0.832-2.56 1.696-3.84l-27.616-16 33.376 10.912c1.568-0.864 3.232-1.632 4.992-2.144l1.504-16.512 5.152 15.328c1.984-0.096 3.904 0.032 5.728 0.416l29.664-21.664-22.944 24.64c1.12 0.928 1.984 1.984 2.496 3.168l24.768-2.048zM338.24 84.352l-16.416-4.8c-1.728 1.056-3.552 1.984-5.472 2.784l-11.648 27.104 3.040-24.896c-1.792 0.16-3.456 0.096-4.8-0.224l-22.112 14.688 18.432-16.672c-0.672-0.704-1.088-1.664-1.216-2.688l-38.304 7.072 39.936-12.8c0.8-1.312 1.856-2.624 3.136-3.872l-11.168-9.184 16.672 4.864c1.76-1.056 3.648-1.984 5.6-2.816l11.648-27.104-3.040 24.896c1.664-0.128 3.232-0.096 4.512 0.192l22.048-14.688-18.24 16.512c0.8 0.8 1.248 1.792 1.376 2.944l38.304-7.104-39.936 12.768c-0.832 1.376-1.952 2.752-3.296 4.064l10.944 8.96zM161.056 240.992l-12.96-2.432c-1.056 1.6-2.24 3.040-3.488 4.32l-3.488 34.048-2.432-29.824c-1.312 0.544-2.528 0.768-3.584 0.672l-13.504 21.6 10.4-23.168c-0.64-0.736-1.12-1.76-1.376-2.976l-26.784 15.776 26.912-22.816c0.352-1.696 0.864-3.424 1.568-5.184l-9.92-8.576 13.152 2.464c1.088-1.632 2.304-3.104 3.584-4.416l3.488-34.048 2.432 29.824c1.216-0.512 2.336-0.736 3.36-0.672l13.44-21.504-10.304 22.912c0.704 0.736 1.248 1.856 1.568 3.168l26.784-15.808-26.944 22.816c-0.352 1.824-0.896 3.616-1.664 5.408l9.76 8.416zM551.584 14.688l-15.968-8.736c-1.76 0.192-3.552 0.256-5.504 0.192l-12.224 15.36 3.712-16.672c-1.792-0.448-3.392-1.056-4.736-1.696l-22.176 3.2 18.592-5.824c-0.672-0.736-0.992-1.504-1.12-2.304l-37.856-7.424 39.616 3.872c0.832-0.64 1.888-1.248 3.2-1.696l-10.72-10.176 16.256 8.928c1.76-0.256 3.648-0.256 5.568-0.192l12.256-15.424-3.68 16.672c1.632 0.448 3.136 0.928 4.448 1.568l22.048-3.2-18.368 5.76c0.736 0.8 1.152 1.696 1.248 2.496l37.888 7.424-39.616-3.872c-0.864 0.672-1.984 1.312-3.328 1.824l10.464 9.92zM270.688 640.96l9.536-21.344c-1.312-1.504-2.4-3.232-3.264-5.088l-38.4-0.832 36.416-8.16c0.032-2.016 0.384-3.968 1.056-5.728l-18.496-18.848 21.952 13.632c1.216-1.152 2.624-2.048 4.224-2.688l-4.832-41.248 13.056 40.448c1.824 0.32 3.616 0.928 5.312 1.824l15.264-17.344-9.728 21.728c1.344 1.504 2.464 3.296 3.36 5.184l38.4 0.832-36.416 8.16c-0.032 1.92-0.32 3.712-0.928 5.344l18.464 18.752-21.728-13.472c-1.248 1.28-2.784 2.272-4.512 2.976l4.8 41.248-13.056-40.416c-1.92-0.352-3.776-0.96-5.504-1.92l-14.976 16.96zM194.688 761.664l-15.808-19.488c-1.024 0-2.24-0.32-3.52-0.864l1.056 25.6-7.456-29.696c-1.472-1.28-2.88-2.688-4.16-4.192l-12.8 1.152 8.864-6.656c-0.864-1.536-1.568-3.040-2.112-4.512l-29.504-21.76 28.608 15.68c0.16-1.056 0.512-1.92 1.088-2.496l-13.184-20.896 16.064 19.776c1.024 0 2.24 0.32 3.584 0.864l-1.056-25.6 7.424 29.728c1.376 1.184 2.688 2.464 3.904 3.872l12.736-1.152-8.736 6.592c0.992 1.664 1.76 3.296 2.336 4.896l29.504 21.76-28.576-15.68c-0.16 1.088-0.544 1.984-1.152 2.592l12.896 20.48zM815.616 788l-20.608 11.104c-0.704 1.248-1.664 2.56-2.816 3.936l13.728 9.408-20.128-3.328c-1.664 1.248-3.328 2.368-4.96 3.328l-8.064 16 2.624-13.568c-1.376 0.448-2.592 0.672-3.712 0.704l-31.040 26.784 27.296-28.192c-0.416-0.64-0.608-1.408-0.512-2.368l-19.488 7.264 20.896-11.296c0.704-1.248 1.696-2.624 2.848-4l-13.696-9.376 20.128 3.328c1.536-1.184 3.072-2.24 4.64-3.104l8-15.968-2.56 13.408c1.504-0.512 2.848-0.768 4.064-0.8l31.008-26.816-27.296 28.192c0.448 0.672 0.672 1.472 0.544 2.496l19.104-7.136zM198.496 592.064l-11.168-23.84c-1.44 0.128-2.944-0.096-4.48-0.64l-13.312 34.272 6.624-38.848c-1.344-1.472-2.528-3.168-3.488-5.024l-18.752 3.488 16.416-10.304c-0.384-1.92-0.512-3.84-0.416-5.728l-29.248-24.8 31.424 16.768c0.832-1.408 1.824-2.656 2.976-3.52l-6.56-26.112 11.328 24.192c1.472-0.16 3.008 0.096 4.576 0.608l13.312-34.272-6.624 38.88c1.248 1.376 2.368 2.912 3.296 4.64l18.688-3.456-16.256 10.208c0.448 2.048 0.608 4.16 0.512 6.208l29.248 24.832-31.392-16.832c-0.864 1.504-1.92 2.752-3.136 3.648l6.432 25.632zM235.104 203.008l3.744-20.544c-1.504-0.064-2.784-0.448-3.936-1.024l-33.408 25.92 29.824-30.4c-0.384-1.344-0.512-2.848-0.288-4.48l-20.032 0.512 21.92-6.272c0.8-1.568 1.856-3.136 3.072-4.672l-12.96-23.52 19.904 17.344c1.664-1.056 3.328-1.888 4.96-2.464l9.536-21.792-3.808 20.8c1.504 0.064 2.816 0.448 4 1.056l33.408-25.92-29.792 30.4c0.352 1.28 0.48 2.656 0.32 4.128l19.968-0.48-21.696 6.208c-0.8 1.728-1.952 3.392-3.264 5.024l12.928 23.552-19.904-17.344c-1.728 1.088-3.488 1.984-5.184 2.528l-9.312 21.44zM497.28 699.456l26.048-1.664c0.512-1.632 1.376-3.2 2.528-4.672l-24.64-29.824 31.616 24.544c1.92-0.8 3.936-1.376 6.016-1.568l5.088-22.144 1.984 22.592c1.888 0.448 3.616 1.184 5.28 2.112l34.848-21.056-28.672 27.040c0.896 1.536 1.536 3.168 1.856 4.832l26.048 4.416-26.464 1.696c-0.48 1.664-1.408 3.264-2.528 4.736l24.64 29.824-31.616-24.544c-1.792 0.736-3.616 1.312-5.568 1.536l-5.056 22.048-2.048-22.336c-1.984-0.448-3.936-1.216-5.728-2.208l-34.848 21.056 28.672-27.040c-0.928-1.6-1.6-3.296-1.888-5.024l-25.568-4.352zM642.176 821.376l23.808-5.92c0.704-1.312 1.76-2.592 3.040-3.872l-17.472-17.344 24.64 12.224c1.888-0.96 3.776-1.728 5.696-2.24l8.192-17.12-1.856 16.16c1.6 0 3.104 0.192 4.416 0.576l34.944-21.696-30.304 24.96c0.608 0.96 0.896 2.048 0.864 3.2l22.88-1.472-24.192 6.016c-0.736 1.344-1.824 2.656-3.072 3.936l17.44 17.344-24.64-12.224c-1.76 0.864-3.488 1.6-5.28 2.112l-8.16 17.056 1.824-16c-1.76 0.032-3.36-0.16-4.8-0.576l-34.944 21.728 30.304-24.96c-0.608-1.024-0.928-2.112-0.864-3.328l-22.464 1.44zM460.928 292.832l-54.848 24.448c0 4.576-0.896 9.184-2.368 13.76l72.224 56.128-83.808-37.312c-3.552 3.52-7.52 6.528-11.808 8.672l3.36 59.872-18.912-55.488c-4.256 0.32-8.512-0.128-12.672-1.216l-61.152 80.32 44-90.592c-2.944-3.2-5.376-6.816-7.040-10.816l-58.848 9.12 55.744-24.8c-0.032-4.64 0.864-9.376 2.368-14.016l-72.288-56.192 83.84 37.376c3.328-3.328 6.944-6.112 10.912-8.224l-3.36-59.712 18.688 54.944c4.64-0.48 9.28-0.064 13.76 1.12l61.184-80.32-44 90.624c3.072 3.328 5.6 7.072 7.296 11.264l57.728-8.96zM649.856 60.352l49.408 12.032c-0.32-2.272 0.16-4.256 1.184-5.92l-71.552-60.704 80.992 56.352c3.072-0.256 6.56 0 10.368 0.8l-7.52-31.904 21.728 36.64c3.968 1.728 7.968 3.84 11.936 6.24l51.2-13.536-34.4 26.368c2.976 2.944 5.536 5.888 7.328 8.64l54.304 21.6-50.176-12.224c0.352 2.368-0.128 4.384-1.216 6.048l71.584 60.672-80.992-56.32c-2.88 0.192-6.048 0-9.6-0.672l7.52 31.808-21.504-36.224c-4.288-1.824-8.64-4.096-12.928-6.688l-51.2 13.536 34.4-26.4c-3.104-3.040-5.76-6.080-7.616-8.96l-53.248-21.184zM43.36 512.448l6.304-31.296c-0.512-4.48-0.928-9.12-1.216-13.792l-18.592-45.6 18.336 25.568c0.192-3.968 0.512-7.424 0.96-10.080l-7.552-58.4 9.632 52.032c0.672-0.864 1.44-0.992 2.24-0.512l0.832-87.040 3.232 94.88c0.864 2.752 1.696 5.952 2.432 9.664l8.736-16.768-6.4 31.808c0.544 4.576 0.96 9.312 1.248 14.080l18.624 45.568-18.336-25.568c-0.16 3.68-0.448 6.944-0.864 9.504l7.52 58.208-9.536-51.488c-0.704 1.088-1.536 1.28-2.432 0.736l-0.8 87.008-3.232-94.848c-0.896-2.848-1.76-6.208-2.528-10.080l-8.608 16.416zM858.112 474.688l-33.728 51.168c1.792 3.552 2.976 7.648 3.584 12.064l79.808 1.344-81.44 20.064c-1.408 4.864-3.36 9.504-5.888 13.664l26.656 44.64-37.216-32.096c-3.264 2.752-6.816 4.896-10.56 6.496l-16.32 98.336-1.44-96.256c-3.584-0.736-6.976-2.144-9.888-4.256l-43.072 41.6 34.24-51.968c-1.888-3.584-3.040-7.776-3.68-12.288l-79.808-1.344 81.44-20.064c1.312-4.512 3.072-8.832 5.376-12.768l-26.56-44.48 36.8 31.776c3.456-3.104 7.328-5.472 11.36-7.2l16.32-98.336 1.408 96.256c3.776 0.768 7.296 2.24 10.272 4.512l42.336-40.864zM293.312 801.344l43.872-16.352c-1.696-3.232-2.56-6.496-2.816-9.696l-90.816-41.28 94.912 28.096c2.112-2.464 4.832-4.512 8.16-5.952l-25.632-42.624 39.008 39.808c4-0.16 8.288 0.224 12.672 1.088l29.056-55.936-8.64 63.552c4.032 2.336 7.744 4.928 10.816 7.808l53.44-5.376-44.544 16.608c1.76 3.296 2.656 6.624 2.912 9.92l90.752 41.248-94.816-28.096c-1.984 2.272-4.448 4.224-7.456 5.632l25.536 42.496-38.592-39.392c-4.288 0.288-8.928-0.128-13.696-1.056l-29.088 55.936 8.672-63.552c-4.224-2.432-8.064-5.152-11.264-8.128l-52.448 5.248zM550.72 590.944l-26.144 0.96c-0.544 1.824-1.472 3.488-2.656 5.088l23.968 33.888-31.104-28.256c-1.952 0.832-3.968 1.408-6.048 1.568l-5.696 24.352-1.408-25.088c-1.856-0.544-3.616-1.408-5.248-2.496l-35.488 22.144 29.408-28.992c-0.864-1.728-1.472-3.552-1.696-5.408l-26.048-5.792 26.592-0.96c0.544-1.856 1.472-3.584 2.688-5.184l-23.968-33.888 31.104 28.256c1.792-0.8 3.68-1.344 5.6-1.536l5.664-24.256 1.376 24.832c2.016 0.544 3.936 1.44 5.696 2.656l35.488-22.144-29.44 28.992c0.896 1.824 1.536 3.712 1.76 5.632l25.6 5.632zM968.096 217.984l39.392 170.496c0.32 0.608 0.512 1.248 0.512 1.984 0 0.448-0.064 0.928-0.224 1.376l-4.832 204.16c0 0.032 0 0.096 0 0.128-0.032 0.16-0.128 0.32-0.128 0.48-0.096 0.544-0.256 1.024-0.512 1.472-0.064 0.096-0.064 0.192-0.096 0.288l-115.264 178.4c-0.032 0.096-0.16 0.128-0.224 0.192-0.128 0.224-0.32 0.384-0.512 0.576s-0.384 0.384-0.64 0.544c-0.064 0.032-0.064 0.096-0.128 0.128l-198.496 120.064c-0.096 0.064-0.192 0.064-0.256 0.096-0.096 0.032-0.128 0.096-0.224 0.128l-114.528 52.736c-0.064 0-0.128 0-0.192 0-0.704 0.288-1.472 0.48-2.272 0.384l-230.464-29.44c-0.704-0.096-1.344-0.384-1.888-0.768-0.064-0.032-0.128 0-0.16-0.032l-104.352-74.368-92.768-55.648c-0.704-0.448-1.28-1.056-1.696-1.792l-61.536-117.344-48.576-85.728c-0.352-0.64-0.576-1.312-0.608-2.016l-11.424-234.688c0 0 0.032-0.064 0.032-0.128 0-0.64 0.064-1.248 0.32-1.888l89.664-208.448c0.032-0.096 0.128-0.128 0.192-0.256 0.128-0.256 0.288-0.512 0.48-0.736 0.16-0.224 0.352-0.384 0.544-0.576 0.16-0.128 0.256-0.32 0.448-0.448l148.544-99.52 178.976-93.056c0.064 0 0.128 0 0.192 0 0.608-0.256 1.216-0.448 1.856-0.448 0 0 0 0 0.032 0s0.064 0 0.096 0c0 0 0 0 0 0 0.064 0 0.128 0 0.224 0l180.864 13.568c0.192 0 0.32 0.064 0.448 0.128 0.384 0.064 0.736 0.064 1.12 0.256l201.632 82.304c0.064 0.032 0.064 0.032 0.064 0.064 0.672 0.288 1.248 0.672 1.76 1.248l143.68 174.208c0.032 0.064 0.064 0.064 0.064 0.128 0.096 0.128 0.128 0.256 0.224 0.384 0.256 0.448 0.48 0.8 0.576 1.248 0.032 0.096 0.032 0.096 0.064 0.16zM959.744 221.984l-41.344-23.2 70.848 151.008-29.504-127.808zM113.856 144.48l-40.608 119.2 107.392-148.768-66.784 29.568zM188.992 118.848l-120.64 167.136 113.824-5.12 6.816-162.016zM556.384 814.72l-149.696-142.72-193.376 17.952 25.92 149.984 212.352 78.24 104.8-103.456zM415.328 661.44l213.12-37.312-141.632-157.632-71.488 194.944zM700.64 408.768l-207.104 51.648 141.824 157.792 65.28-209.44zM417.984 670.176l143.168 136.544 68.928-173.664-212.096 37.12zM399.456 663.52l-135.488-167.296-49.888 184.512 185.376-17.216zM270.56 489.952l136.256 168.224 71.488-194.848-207.744 26.624zM491.488 451.584l207.072-51.68-151.936-155.424-55.136 207.104zM896.256 386.016l-185.44 20.576-68.256 218.976 140.384 110.112 153.632-148.224-40.32-201.44zM639.264 634.528l-68.576 172.768 203.072-67.264-134.496-105.504zM206.432 674.208l49.536-183.168-156 0.448 106.464 182.72zM191.872 286.464l73.024 195.040 216.64-27.776 57.472-216-177.344-105.312-169.792 154.048zM367.776 119.744l193.184-65.472-156.256-67.584-36.928 133.056zM713.28 397.152l178.080-19.712-132.096-172.736-45.984 192.448zM904.608 376.896l91.232 8.32-83.84-178.624-7.392 170.304zM905.504 386.112l36.928 184.48 54.848-176.128-91.776-8.352zM95.68 502.144l-10.24 164 114.016 14.080-103.776-178.080zM255.36 481.952l-69.312-185.024-86.848 185.472 156.16-0.448zM191.52 274.528l159.328-144.576-152.352-20.864-6.976 165.44zM357.792 121.792l36.544-131.648-186.688 111.040 150.144 20.608zM567.936 61.536l-196.032 66.4 168.96 100.352 27.072-166.752zM553.44 238.4l151.424 154.944 46.144-193.184-197.568 38.24zM766.016 198.528l129.888 169.824 7.648-175.68-137.536 5.856zM683.328 888.096l89.12-138.048-199.2 65.952 110.080 72.096zM204.064 689.952l-112-13.856 135.936 152.32-23.936-138.464zM179.232 290.016l-0.992 0.064-113.728 5.12 29.632 176.64 85.088-181.824zM571.392 48.896l39.232-81.344-190.464 15.936 151.232 65.408zM576.864 62.976l-27.072 166.912 196.448-38.016-169.376-128.896zM947.424 585.12l46.56 5.664 3.968-167.936-50.528 162.272zM931.776 604.64l-139.968 135.072 88.384 28.864 51.584-163.936zM671.808 891.424l-108.384-70.944-98.048 96.768 206.432-25.824zM341.184 913.216l81.952 4.16-157.664-58.080 75.712 53.92zM620.416-31.808l-41.088 85.216 179.264 136.32 141.824-6.016-83.456-135.328-196.544-80.192zM911.52 184.544l33.216 18.624-86.144-104.48 52.928 85.856zM990.656 599.52l-45.984-5.6-47.136 149.696 93.12-144.096zM872.384 775.552l-87.264-28.48-86.016 133.248 173.28-104.768zM480.8 924.48l88.736 17.952 86.56-39.84-175.296 21.888zM145.6 784.224l66.304 39.776-110.176-123.424 43.872 83.648zM36.448 582.944l40.608 71.648 10.432-167.424-30.88-184.128-31.456 47.808 11.296 232.096zM55.072 288.896l13.28-38.944-23.328 54.176 10.048-15.232zM156.096 115.84l35.936-15.936 207.008-123.104 8.064-7.2-146.304 76.032-104.704 70.208zM438.88-46.496l-23.968 21.312 145.824-12.192-121.856-9.12z" />
<glyph unicode="&#xe200;" d="M87.392 487.2h-78.784l1.024 9.984h78.144c24.096 0 32.352-14.816 32.352-31.264v-139.424h-5.888l-5.856 7.2-5.504-7.2h-73.984c-19.584 0-28.896 11.328-28.896 28.512v29.312c0 17.184 10.688 29.248 28.576 30.24l80.896 4.864v46.496c0 14.080-6.912 21.28-22.080 21.28zM11.040 355.008c0-14.368 10.656-18.56 18.208-18.56h63.008c10.656 0 17.216 6.176 17.216 17.568v55.808l-80.896-4.864c-9.984-0.64-17.536-6.88-17.536-20.64v-29.312zM162.816 326.496l-1.376 9.632h85.344c10.656 0 15.84 5.824 15.84 16.512v27.552c0 10.688-4.128 14.048-12.736 16.864l-61.248 14.432c-14.816 3.424-25.824 8.256-25.824 26.496v31.328c0 18.24 10.656 27.872 25.824 27.872h78.112l1.376-9.312h-79.84c-11.712 0-14.816-9.248-14.816-16.512v-32c0-10.688 4.128-14.432 12.736-17.248l64.704-14.752c14.784-3.424 22.336-10.688 22.336-26.816v-26.176c0-18.24-10.656-27.872-25.792-27.872h-84.64zM304.288 497.184h25.088v40.32l10.688 1.696v-41.984h41.664v-9.312h-41.664v-129.376c0-14.816 8.928-22.048 20.672-22.048h17.536l-0.992-9.952h-16.192c-19.296 0-31.68 10.688-31.68 31.68v129.696h-25.12v9.28zM430.24 326.496h-10.656v170.688h5.856l5.856-7.2 5.504 7.2h46.144l-1.408-9.632h-37.504c-11.36 0-13.792-6.88-13.792-14.816v-146.24zM539.68 326.496c-15.136 0-25.792 9.632-25.792 27.872v114.944c0 18.24 10.656 27.872 25.792 27.872h72.992c15.136 0 25.44-9.632 25.44-27.872v-114.944c0-18.24-10.304-27.872-25.44-27.872h-72.992zM524.576 354.368c0-8.256 3.424-18.24 15.136-18.24h72.992c11.68 0 15.136 9.984 15.136 18.24v114.944c0 8.256-3.424 18.24-15.136 18.24h-72.992c-11.68 0-15.136-9.984-15.136-18.24v-114.944zM693.568 326.496h-10.656v241.248l10.656 1.76v-243.008zM818.848 487.2h-78.816l1.056 9.984h78.112c24.096 0 32.352-14.816 32.352-31.264v-139.424h-5.888l-5.856 7.2-5.504-7.2h-73.984c-19.584 0-28.896 11.328-28.896 28.512v29.312c0 17.184 10.688 29.248 28.544 30.24l80.928 4.864v46.496c0 14.080-6.912 21.28-22.048 21.28zM742.4 355.008c0-14.368 10.72-18.56 18.304-18.56h62.976c10.656 0 17.216 6.176 17.216 17.568v55.808l-80.928-4.864c-9.984-0.64-17.568-6.88-17.568-20.64v-29.312zM910.4 489.632l6.528 7.552h81.248c15.168 0 25.824-9.632 25.824-27.872v-114.944c0-18.24-10.304-27.872-25.472-27.872h-82.24l-5.504 7.2-5.536-7.2h-5.472v241.568l10.624 1.44v-79.872zM1013.696 469.312c0 8.256-3.456 18.24-15.168 18.24h-72.96c-11.68 0-15.168-9.984-15.168-18.24v-114.944c0-8.256 3.456-18.24 15.168-18.24h72.64c11.68 0 15.488 9.984 15.488 18.24v114.944z" />
<glyph unicode="&#xe205;" d="M769.568 896c-18.464 0-33.568 14.4-33.568 32s-15.104 32-33.568 32h-380.864c-18.464 0-33.568-14.4-33.568-32s-15.104-32-33.568-32h-124.864c-18.464 0-33.568-15.104-33.568-33.568v-892.864c0-18.464 15.104-33.568 33.568-33.568h764.864c18.464 0 33.568 15.104 33.568 33.568v892.864c0 18.464-15.104 33.568-33.568 33.568h-124.864zM352 866.752c0 17.824 15.104 32.384 33.568 32.384h252.864c18.464 0 33.568-14.56 33.568-32.384s-15.104-32.384-33.568-32.384h-252.864c-18.464 0-33.568 14.56-33.568 32.384zM800.032 242.304c0-18.464-11.072-43.84-24.576-56.448l-106.336-99.008c-13.504-12.576-39.648-22.848-58.112-22.848h-353.408c-18.464 0-33.568 15.104-33.568 33.568v636.864c0 18.464 15.104 33.568 33.568 33.568h508.864c18.464 0 33.568-15.104 33.568-33.568v-492.128z" />
<glyph unicode="&#xe213;" d="M512-64c70.688 0 128 57.312 128 128h-256c0-70.688 57.312-128 128-128zM928 256h-32c-54.88 0-54.88 38.112-54.88 57.632 0 225.76-68.576 417.344-205.056 488.448-13.568 69.824-63.744 157.92-124.064 157.92s-110.496-88.096-124.064-157.952c-136.512-71.104-205.056-262.688-205.056-488.448 0-19.488 0-57.6-54.88-57.6h-32c-17.696 0-32-14.304-32-32v-64c0-17.696 14.304-32 32-32h832c17.696 0 32 14.304 32 32v64c0 17.696-14.304 32-32 32z" />
<glyph unicode="&#xe240;" d="M881.76 764.864c-94.848 94.848-209.312 142.272-343.328 142.272-134.080 0-248.48-47.424-343.328-142.272s-142.24-209.312-142.24-343.328c0-134.016 47.392-248.448 142.24-343.296 94.848-94.88 209.28-142.24 343.328-142.24 134.016 0 248.48 47.424 343.328 142.24 94.88 94.88 142.24 209.248 142.24 343.328 0 134.016-47.36 248.48-142.24 343.296zM320 672c53.024 0 96-57.312 96-128s-42.976-128-96-128-96 57.312-96 128 42.976 128 96 128zM764.672 195.328c-62.496-62.432-137.92-93.76-226.208-93.76-88.352 0-163.776 31.264-226.272 93.76-19.008 18.976-34.752 39.296-47.968 60.672h548.48c-13.28-21.344-28.992-41.664-48.032-60.672zM768.032 416c-53.024 0-96 57.312-96 128s42.976 128 96 128 96-57.312 96-128-42.976-128-96-128z" />
<glyph unicode="&#xe600;" d="M640 448c0-70.368-57.632-128-128-128v0c-70.368 0-128 57.632-128 128v384c0 70.336 57.632 128 128 128v0c70.368 0 128-57.664 128-128v-384zM832 448v128h-64v-128c0-141.216-114.816-256-256-256s-256 114.784-256 256v128h-64v-128c0-154.848 109.952-283.872 256-313.568v-70.432l-192-64v-64h512v64l-192 64v70.432c146.048 29.696 256 158.72 256 313.568z" />
<glyph unicode="&#xe601;" d="M361.376 857.856l-82.144-82.208c-9.44 6.752-18.528 14.144-24.832 20.448l-141.28 141.28c-12.448 12.448-32.8 12.448-45.248 0l-45.248-45.28c-12.448-12.448-12.448-32.8 0-45.248l141.216-141.216c6.304-6.304 13.696-15.36 20.448-24.8l-82.144-82.176c-12.448-12.48-8.224-22.656 9.344-22.656h240.512c17.6 0 32 14.4 32 32v240.48c0 17.568-10.176 21.792-22.624 9.376zM672 576h240.512c17.6 0 21.824 10.176 9.376 22.624l-82.144 82.176c6.752 9.44 14.112 18.496 20.448 24.8l141.216 141.216c12.448 12.448 12.448 32.8 0 45.248l-45.248 45.28c-12.448 12.448-32.8 12.448-45.248 0l-141.312-141.248c-6.304-6.304-15.36-13.696-24.8-20.448l-82.144 82.176c-12.48 12.448-22.656 8.224-22.656-9.344v-240.48c0-17.6 14.4-32 32-32zM352 320h-240.512c-17.6 0-21.824-10.176-9.376-22.624l82.144-82.208c-6.784-9.44-14.112-18.496-20.448-24.8l-141.216-141.216c-12.448-12.448-12.448-32.8 0-45.248l45.248-45.248c12.448-12.448 32.8-12.448 45.248 0l141.28 141.248c6.304 6.304 15.36 13.696 24.8 20.448l82.144-82.176c12.512-12.48 22.688-8.256 22.688 9.312v240.512c0 17.6-14.4 32-32 32zM860.16 190.336c-6.304 6.304-13.664 15.36-20.448 24.8l82.144 82.208c12.448 12.48 8.224 22.656-9.344 22.656h-240.512c-17.6 0-32-14.4-32-32v-240.512c0-17.6 10.176-21.824 22.624-9.376l82.144 82.176c9.44-6.752 18.496-14.112 24.8-20.448l141.28-141.248c12.448-12.448 32.8-12.448 45.248 0l45.248 45.248c12.448 12.448 12.448 32.8 0 45.248l-141.184 141.248z" />
<glyph unicode="&#x10ffff;" d="M1024 446.976c0-141.344-49.984-262.016-150.016-361.984s-220.672-150.016-361.984-150.016c-141.344 0-262.016 49.984-361.984 150.016s-150.016 220.64-150.016 361.984c0 141.312 49.984 261.984 150.016 361.984s220.64 150.016 361.984 150.016c141.312 0 262.016-49.984 361.984-150.016s150.016-220.672 150.016-361.984zM820 446.976c0 85.312-30.016 158.016-89.984 217.984s-132.704 90.016-218.016 90.016c-85.344 0-158.016-30.016-217.984-89.984s-89.984-132.672-89.984-217.984c0-85.344 30.016-158.016 89.984-217.984s132.672-89.984 217.984-89.984c85.312 0 158.016 30.016 217.984 89.984s90.016 132.608 90.016 217.952z" />
</font>
</defs>
</svg>
